# Blender 4.0.1
# www.blender.org
o SM_Desk
v -1.089665 1.013336 -0.873290 0.3098 0.1882 0.0667
v -1.089665 1.013336 0.457738 0.3098 0.1882 0.0667
v 1.177571 1.013336 0.457738 0.3098 0.1882 0.0667
v 1.177571 1.013336 -0.873290 0.3098 0.1882 0.0667
v -1.089665 1.013336 -0.806738 0.2196 0.1294 0.0353
v -1.089665 1.013336 0.391187 0.2196 0.1294 0.0353
v -1.014090 1.013336 0.457738 0.2196 0.1294 0.0353
v 1.101997 1.013336 0.457738 0.2196 0.1294 0.0353
v 1.177571 1.013336 0.391187 0.2196 0.1294 0.0353
v 1.177571 1.013336 -0.806738 0.2196 0.1294 0.0353
v 1.101997 1.013336 -0.873290 0.2196 0.1294 0.0353
v -1.014090 1.013336 -0.873290 0.2196 0.1294 0.0353
v -1.014090 1.013336 0.391187 0.0000 0.0000 0.0000
v -1.014090 1.013336 -0.806738 0.0000 0.0000 0.0000
v 1.101997 1.013336 0.391187 0.0000 0.0000 0.0000
v 1.101997 1.013336 -0.806738 0.0000 0.0000 0.0000
v -1.089665 0.000000 0.391187 0.3412 0.2118 0.0784
v -1.089665 0.000000 0.457738 0.3804 0.2353 0.0902
v 1.101997 0.000000 0.457738 0.3412 0.2118 0.0784
v 1.177571 0.000000 0.457738 0.3804 0.2353 0.0902
v 1.177571 0.000000 -0.806738 0.3412 0.2118 0.0784
v 1.177571 0.000000 -0.873290 0.3804 0.2353 0.0902
v -1.014090 0.000000 -0.873290 0.3412 0.2118 0.0784
v -1.089665 0.000000 -0.873290 0.3804 0.2353 0.0902
v -1.089665 0.000000 -0.806738 0.3412 0.2118 0.0784
v -1.014090 0.000000 0.457738 0.3412 0.2118 0.0784
v 1.177571 0.000000 0.391187 0.3412 0.2118 0.0784
v 1.101997 0.000000 -0.873290 0.3412 0.2118 0.0784
v -1.014090 0.000000 -0.806738 0.2980 0.1804 0.0627
v -1.014090 0.000000 0.391187 0.2980 0.1804 0.0627
v 1.101997 0.000000 -0.806738 0.2980 0.1804 0.0627
v 1.101997 0.000000 0.391187 0.2980 0.1804 0.0627
v -1.077049 1.078785 0.445123 0.3725 0.2275 0.0824
v -1.089665 1.066170 0.457738 0.3568 0.2196 0.0824
v 1.164956 1.078785 0.445123 0.3725 0.2275 0.0824
v 1.177571 1.066170 0.457738 0.3568 0.2196 0.0824
v -1.089665 1.066170 -0.873290 0.3568 0.2196 0.0824
v -1.077049 1.078785 -0.860675 0.3725 0.2275 0.0824
v 1.164956 1.078785 -0.860675 0.3725 0.2275 0.0824
v 1.177571 1.066170 -0.873290 0.3568 0.2196 0.0824
vn 0.2729 -0.5388 0.7970
vn -0.1213 -0.5004 0.8572
vn 0.4870 0.2415 0.8394
vn -0.0271 -0.7296 -0.6833
vn -0.0577 -0.9967 -0.0577
vn 0.7780 -0.4769 -0.4089
vn 0.8029 -0.5428 0.2465
vn 0.4751 0.2598 -0.8407
vn -0.2729 -0.5388 -0.7970
vn 0.1213 -0.5004 -0.8572
vn -0.4870 0.2415 -0.8394
vn -0.1149 0.8977 0.4253
vn 0.0011 1.0000 -0.0030
vn -0.0024 1.0000 0.0065
vn -0.7730 -0.6324 0.0504
vn -0.0521 -0.9973 0.0521
vn 0.0562 -0.9967 0.0592
vn 0.0271 -0.7296 0.6833
vn 0.8191 -0.0000 0.5737
vn -0.7946 -0.3206 0.5156
vn 0.0506 -0.9973 -0.0536
vn -0.7614 -0.4945 -0.4192
vn 0.0294 -0.7514 0.6591
vn -0.2500 -0.2563 -0.9337
vn 0.6592 -0.0294 0.7514
vn -0.6599 -0.0459 0.7499
vn -0.7499 -0.6599 0.0459
vn 0.0504 -0.7730 -0.6323
vn 0.8190 -0.0000 -0.5737
vn -0.8190 -0.0000 0.5737
vn -0.8191 -0.0000 -0.5737
vn 0.6323 -0.0504 -0.7731
vn 0.5922 0.8058 -0.0024
vn -0.8263 0.1954 0.5283
s 1
f 7//1 8//2 36//3
f 32//4 8//2 15//5
f 9//6 10//7 40//8
f 11//9 12//10 37//11
f 35//12 38//13 33//14
f 31//15 10//7 16//16
f 12//10 16//16 14//17
f 20//18 9//6 3//19
f 5//20 13//21 6//22
f 13//21 8//2 7//1
f 14//17 15//5 13//21
f 28//4 16//16 11//9
f 16//16 9//6 15//5
f 28//4 21//23 31//15
f 24//24 29//25 25//26
f 17//24 26//25 18//26
f 32//4 20//18 19//27
f 22//28 11//9 4//29
f 30//28 6//22 13//21
f 17//24 2//30 6//22
f 24//24 5//20 1//31
f 25//26 14//17 5//20
f 19//27 3//19 8//2
f 29//25 12//10 14//17
f 21//23 4//29 10//7
f 26//25 13//21 7//1
f 18//26 7//1 2//30
f 23//28 1//31 12//10
f 27//32 15//5 9//6
f 37//11 33//14 38//13
f 33//14 36//3 35//12
f 36//3 39//33 35//12
f 39//33 37//11 38//13
f 5//20 6//22 34//34
f 36//3 34//34 2//30
f 36//3 2//30 7//1
f 8//2 3//19 36//3
f 32//4 19//27 8//2
f 40//8 36//3 3//19
f 40//8 3//19 9//6
f 10//7 4//29 40//8
f 37//11 40//8 4//29
f 37//11 4//29 11//9
f 12//10 1//31 37//11
f 35//12 39//33 38//13
f 31//15 21//23 10//7
f 12//10 11//9 16//16
f 20//18 27//32 9//6
f 5//20 14//17 13//21
f 13//21 15//5 8//2
f 14//17 16//16 15//5
f 28//4 31//15 16//16
f 16//16 10//7 9//6
f 28//4 22//28 21//23
f 24//24 23//28 29//25
f 17//24 30//28 26//25
f 32//4 27//32 20//18
f 22//28 28//4 11//9
f 30//28 17//24 6//22
f 17//24 18//26 2//30
f 24//24 25//26 5//20
f 25//26 29//25 14//17
f 19//27 20//18 3//19
f 29//25 23//28 12//10
f 21//23 22//28 4//29
f 26//25 30//28 13//21
f 18//26 26//25 7//1
f 23//28 24//24 1//31
f 27//32 32//4 15//5
f 37//11 34//34 33//14
f 33//14 34//34 36//3
f 36//3 40//8 39//33
f 39//33 40//8 37//11
f 34//34 37//11 1//31
f 34//34 1//31 5//20
f 6//22 2//30 34//34
