# Blender 4.0.1
# www.blender.org
o SM_Fan
v -0.183816 -1.669754 -1.431134 0.7882 0.7804 0.7725
v -0.267426 -1.656420 -1.417891 0.7882 0.7804 0.7725
v 0.267426 -1.656420 1.417891 0.7882 0.7804 0.7725
v 0.183816 -1.669754 1.431134 0.7882 0.7804 0.7725
v -1.431134 -1.669754 0.183817 0.7882 0.7804 0.7725
v -1.417891 -1.656420 0.267426 0.7882 0.7804 0.7725
v 1.417891 -1.656420 -0.267426 0.7882 0.7804 0.7725
v 1.431134 -1.669754 -0.183817 0.7882 0.7804 0.7725
v -0.881986 -1.669754 1.141942 0.7882 0.7804 0.7725
v -0.813502 -1.656420 1.191699 0.7882 0.7804 0.7725
v 0.813502 -1.656420 -1.191699 0.7882 0.7804 0.7725
v 0.881986 -1.669754 -1.141942 0.7882 0.7804 0.7725
v 1.141943 -1.663087 0.881986 0.7686 0.7608 0.7529
v 1.191699 -1.663087 0.813502 0.7686 0.7608 0.7529
v -1.191699 -1.643087 -0.813502 0.7686 0.7608 0.7529
v -1.141943 -1.663087 -0.881986 0.7686 0.7608 0.7529
v -0.030846 -1.691472 0.147800 0.7804 0.7686 0.7608
v -0.003546 -1.565637 0.049579 0.4471 0.4432 0.4353
v -0.132119 -1.691472 0.068746 0.7960 0.7843 0.7725
v -0.138943 -1.691472 -0.059087 0.7843 0.7725 0.7608
v -0.045616 -1.565637 0.005834 0.4392 0.4353 0.4314
v -0.028063 -1.691472 -0.148354 0.7843 0.7725 0.7647
v -0.019813 -1.565637 -0.044397 0.4432 0.4392 0.4314
v 0.107761 -1.691472 -0.105755 0.7921 0.7804 0.7725
v 0.147317 -1.691472 0.002120 0.7843 0.7764 0.7647
v 0.105755 -1.691472 0.107761 0.7843 0.7725 0.7608
v 0.049604 -1.565637 -0.011245 0.4432 0.4392 0.4314
v -0.025706 -1.565637 0.151300 0.4706 0.4667 0.4589
v -0.135781 -1.565637 0.061195 0.4589 0.4589 0.4510
v -0.129946 -1.565637 -0.081649 0.4589 0.4550 0.4471
v -0.019421 -1.565637 -0.146047 0.6628 0.6550 0.6510
v 0.118099 -1.565637 -0.102474 0.5216 0.5176 0.5098
v 0.129946 -1.565637 0.081649 0.4628 0.4589 0.4510
v -0.005337 0.282884 0.050581 0.4510 0.4510 0.4510
v -0.046635 0.282884 -0.009656 0.4471 0.4471 0.4471
v 0.010045 0.282884 -0.048680 0.4510 0.4510 0.4510
v 0.046478 0.282884 0.004973 0.4510 0.4510 0.4510
v -1.191699 -1.683087 -0.813502 0.7686 0.7608 0.7529
v -0.082042 -1.664045 0.092325 0.0235 0.0235 0.0196
v -0.112859 -1.664045 -0.052029 0.0196 0.0196 0.0196
v -0.008655 -1.594856 0.018774 0.2823 0.2784 0.2784
v 0.025361 -1.664045 -0.122486 0.0000 0.0000 0.0000
v -0.006958 -1.594840 -0.018861 0.2784 0.2745 0.2745
v 0.114391 -1.664045 -0.033319 0.1020 0.0980 0.0980
v 0.099794 -1.664045 0.068045 0.1490 0.1451 0.1451
v 0.018626 -1.594835 -0.000504 0.2863 0.2823 0.2784
v 0.021328 -1.664045 0.115917 0.0745 0.0745 0.0706
v -0.033010 -1.593078 0.120650 0.1804 0.1804 0.1765
v -0.119809 -1.593059 0.015324 0.1922 0.1922 0.1882
v -0.079304 -1.593081 -0.091104 0.1255 0.1255 0.1216
v 0.055914 -1.593078 -0.111891 0.2039 0.2000 0.1961
v 0.120497 -1.593059 0.008344 0.2039 0.2000 0.2000
v 0.077829 -1.593073 0.088512 0.2196 0.2157 0.2118
v -0.019006 0.255459 0.001121 0.2235 0.2235 0.2235
v 0.009954 0.255456 -0.013700 0.2235 0.2235 0.2235
v 0.011980 0.255456 0.012152 0.2235 0.2235 0.2235
vn -0.1544 0.9878 0.0198
vn 0.1543 0.9878 -0.0198
vn 0.1530 -0.9878 -0.0288
vn 0.0199 0.9878 0.1544
vn -0.0198 0.9878 -0.1543
vn -0.0289 -0.9878 -0.1530
vn 0.1232 0.9878 0.0951
vn -0.1233 0.9878 -0.0951
vn -0.1286 -0.9878 -0.0877
vn 0.6113 0.0110 -0.7914
vn -0.0717 0.9931 0.0929
vn -0.5638 -0.0001 0.8259
vn -0.1063 0.4223 0.9002
vn -0.3030 -0.9266 0.2226
vn -0.1442 -0.4547 0.8789
vn -0.7829 0.5736 0.2410
vn -0.9076 -0.3155 -0.2771
vn -0.6657 0.5446 -0.5101
vn -0.1061 -0.6199 -0.7774
vn 0.6425 0.5319 -0.5517
vn 0.1916 -0.9557 -0.2234
vn 0.9901 -0.1381 -0.0245
vn 0.6798 0.6442 0.3506
vn 0.3030 -0.8292 0.4697
vn 0.1715 0.2364 0.9564
vn -0.9337 0.0829 0.3484
vn -0.3435 0.1308 -0.9300
vn -0.0644 0.6381 -0.7673
vn 0.9963 0.0863 -0.0046
vn 0.2819 0.0315 -0.9589
vn -0.9639 0.0212 -0.2655
vn 0.0130 0.0266 0.9996
vn -0.1529 -0.9878 0.0289
vn 0.0289 -0.9878 0.1529
vn 0.1285 -0.9878 0.0878
vn -0.0717 -0.9931 0.0929
vn 0.3527 0.8912 -0.2852
vn 0.2063 -0.7372 -0.6434
vn -0.0683 0.9326 -0.3543
vn 0.0020 0.9405 0.3398
vn 0.3987 -0.6620 0.6347
vn 0.6278 0.7228 0.2890
vn -0.5739 0.7777 0.2567
vn -0.3518 -0.7669 0.5367
vn -0.7904 0.3956 -0.4677
vn -0.6941 -0.7197 0.0159
vn -0.3576 -0.7766 -0.5186
vn 0.6588 -0.7386 -0.1431
vn 0.5036 -0.2358 0.8312
vn 0.4474 -0.2432 -0.8606
vn -0.9742 -0.2258 0.0047
vn -0.5184 -0.0098 -0.8551
vn -0.4610 -0.0102 0.8873
vn 0.9999 -0.0101 -0.0052
vn 0.5638 -0.0000 -0.8259
vn 0.9879 0.0243 0.1531
s 1
f 2//1 3//2 1//3
f 6//4 7//5 5//6
f 10//7 11//8 9//9
f 14//10 15//11 13//12
f 28//13 19//14 17//15
f 29//16 20//17 19//14
f 30//18 22//19 20//17
f 32//20 24//21 22//19
f 32//20 25//22 24//21
f 33//23 26//24 25//22
f 28//13 17//15 26//24
f 19//14 22//19 24//21
f 18//25 29//16 28//13
f 21//26 29//16 18//25
f 23//27 31//28 30//18
f 27//29 32//20 23//27
f 27//29 33//23 32//20
f 18//25 33//23 27//29
f 36//30 35//31 34//32
f 27//29 34//32 18//25
f 23//27 36//30 27//29
f 18//25 34//32 21//26
f 21//26 35//31 23//27
f 1//3 4//33 2//1
f 5//6 8//34 6//4
f 9//9 12//35 10//7
f 38//36 14//10 13//12
f 39//37 48//38 47//39
f 42//40 50//41 40//42
f 44//43 51//44 42//40
f 45//45 52//46 44//43
f 47//39 53//47 45//45
f 47//39 44//43 42//40
f 49//48 43//49 41//50
f 51//44 46//51 43//49
f 53//47 41//50 46//51
f 56//52 46//51 41//50
f 55//53 43//49 46//51
f 43//49 54//54 41//50
f 16//55 38//36 15//11
f 2//1 4//33 3//2
f 6//4 8//34 7//5
f 10//7 12//35 11//8
f 14//10 16//55 15//11
f 28//13 29//16 19//14
f 29//16 30//18 20//17
f 30//18 31//28 22//19
f 31//28 32//20 22//19
f 32//20 33//23 25//22
f 33//23 28//13 26//24
f 25//22 26//24 24//21
f 17//15 19//14 26//24
f 19//14 20//17 22//19
f 26//24 19//14 24//21
f 21//26 30//18 29//16
f 21//26 23//27 30//18
f 23//27 32//20 31//28
f 18//25 28//13 33//23
f 37//56 36//30 34//32
f 27//29 37//56 34//32
f 21//26 34//32 35//31
f 27//29 36//30 37//56
f 23//27 35//31 36//30
f 1//3 3//2 4//33
f 5//6 7//5 8//34
f 9//9 11//8 12//35
f 38//36 16//55 14//10
f 39//37 49//48 48//38
f 39//37 40//42 49//48
f 40//42 50//41 49//48
f 42//40 51//44 50//41
f 44//43 52//46 51//44
f 45//45 53//47 52//46
f 47//39 48//38 53//47
f 47//39 45//45 44//43
f 40//42 39//37 42//40
f 39//37 47//39 42//40
f 48//38 49//48 41//50
f 43//49 49//48 50//41
f 50//41 51//44 43//49
f 51//44 52//46 46//51
f 46//51 52//46 53//47
f 53//47 48//38 41//50
f 56//52 54//54 55//53
f 54//54 56//52 41//50
f 43//49 55//53 54//54
f 56//52 55//53 46//51
f 15//11 38//36 13//12
