# Blender 4.0.1
# www.blender.org
o SM_Floppy
v 0.281580 -0.000000 0.103009 0.5882 0.5882 0.5882
v -0.281578 0.000000 0.103009 0.5882 0.5882 0.5882
v 0.060187 -0.000000 -0.062184 0.4589 0.4589 0.4589
v 0.100023 0.000000 0.274448 0.2549 0.2549 0.2549
v 0.100023 0.000000 0.116581 0.3490 0.3490 0.3490
v -0.064749 -0.000000 -0.062184 0.4589 0.4589 0.4589
v 0.029689 0.000000 0.274448 0.2863 0.2863 0.2863
v 0.029689 0.000000 0.116581 0.2549 0.2549 0.2549
v 0.281580 0.000000 0.267231 0.5882 0.5882 0.5882
v 0.248992 0.000000 0.299420 0.5882 0.5882 0.5882
v -0.281578 0.000000 0.286536 0.5882 0.5882 0.5882
v -0.265961 0.000000 0.299420 0.5882 0.5882 0.5882
v -0.265961 -0.000000 -0.287194 0.5882 0.5882 0.5882
v 0.272097 -0.000000 -0.287194 0.5882 0.5882 0.5882
v 0.281580 -0.000000 -0.274406 0.5882 0.5882 0.5882
v -0.273173 -0.000000 -0.274406 0.5882 0.5882 0.5882
v 0.281580 0.010725 0.103009 0.5882 0.5882 0.5882
v -0.281578 0.010725 0.103009 0.5882 0.5882 0.5882
v 0.151317 0.010724 -0.287194 0.5647 0.5647 0.5647
v 0.100334 0.010725 0.275504 0.2549 0.2549 0.2549
v 0.100334 0.010725 0.116419 0.3490 0.3490 0.3490
v -0.148278 0.010724 -0.287194 0.5569 0.5569 0.5569
v 0.028787 0.010725 0.275503 0.2863 0.2863 0.2863
v 0.028787 0.010725 0.116419 0.2549 0.2549 0.2549
v 0.281580 0.010725 0.267231 0.5882 0.5882 0.5882
v 0.248992 0.010725 0.299420 0.5882 0.5882 0.5882
v -0.281578 0.010725 0.286536 0.5882 0.5882 0.5882
v -0.265961 0.010725 0.299420 0.5882 0.5882 0.5882
v -0.265961 0.010725 -0.287194 0.5882 0.5882 0.5882
v 0.272097 0.010724 -0.287194 0.5882 0.5882 0.5882
v 0.281580 0.010724 -0.274406 0.5882 0.5882 0.5882
v -0.273173 0.010725 -0.274406 0.5882 0.5882 0.5882
v 0.281580 0.010725 0.057116 0.5882 0.5882 0.5882
v -0.148278 0.010725 0.057082 0.5569 0.5569 0.5569
v 0.151317 0.010725 0.057106 0.5647 0.5647 0.5647
v -0.280555 0.010725 0.057072 0.5882 0.5882 0.5882
v -0.218804 0.010725 0.057076 0.5725 0.5725 0.5725
v -0.218804 0.010724 -0.287194 0.5804 0.5804 0.5804
v 0.225110 0.010725 0.057112 0.5804 0.5804 0.5804
v 0.225110 0.010724 -0.287194 0.5725 0.5725 0.5725
v 0.225110 0.010725 0.103009 0.5725 0.5725 0.5725
v 0.225110 0.010725 0.299420 0.5804 0.5804 0.5804
v 0.151317 0.010725 0.299420 0.3059 0.3059 0.3059
v -0.148278 0.010725 0.299420 0.4039 0.4039 0.4039
v -0.148278 0.010725 0.103009 0.4432 0.4432 0.4432
v 0.151317 0.010725 0.103009 0.3686 0.3686 0.3686
v 0.151317 0.000000 0.299420 0.3725 0.3725 0.3725
v -0.148278 0.000000 0.299420 0.2941 0.2941 0.2941
v -0.064749 0.000000 0.059074 0.4589 0.4589 0.4589
v 0.060187 -0.000000 0.059074 0.4589 0.4589 0.4589
v -0.229022 0.000000 0.103009 0.5804 0.5804 0.5804
v -0.229022 0.000000 0.299420 0.5725 0.5725 0.5725
v 0.151317 -0.000000 -0.287194 0.5882 0.5882 0.5882
v -0.148278 -0.000000 -0.287194 0.5882 0.5882 0.5882
v 0.151317 0.000000 0.103009 0.4432 0.4432 0.4432
v -0.148278 0.000000 0.103009 0.4510 0.4510 0.4510
v -0.002281 -0.000000 -0.083628 0.4823 0.4823 0.4823
v 0.082281 -0.000000 -0.001555 0.4823 0.4823 0.4823
v -0.002281 0.000000 0.080518 0.4823 0.4823 0.4823
v -0.086843 -0.000000 -0.001555 0.4823 0.4823 0.4823
v -0.002281 -0.000000 -0.001555 0.3294 0.3294 0.3294
vn -0.0000 -1.0000 -0.0000
vn -0.0000 1.0000 -0.0000
vn 0.8032 -0.0000 -0.5956
vn -0.0000 -0.0000 -1.0000
vn -0.8710 -0.0000 -0.4913
vn -0.0000 -0.0000 1.0000
vn 1.0000 -0.0000 -0.0000
vn -0.6364 -0.0000 0.7714
vn -0.9998 -0.0000 -0.0223
vn 0.7027 -0.0000 0.7114
vn -1.0000 -0.0000 -0.0000
s 0
f 52//1 56//1 48//1
f 55//1 9//1 47//1
f 61//1 6//1 57//1
f 7//1 5//1 4//1
f 15//1 55//1 53//1
f 54//1 51//1 16//1
f 45//2 18//2 27//2
f 42//2 25//2 41//2
f 35//2 45//2 46//2
f 21//2 23//2 20//2
f 39//2 33//2 31//2
f 22//2 37//2 34//2
f 15//3 30//3 31//3
f 13//4 29//4 38//4
f 54//4 19//4 53//4
f 16//5 29//5 13//5
f 48//6 43//6 44//6
f 10//6 26//6 42//6
f 15//7 31//7 33//7
f 12//8 27//8 11//8
f 2//9 18//9 36//9
f 9//7 17//7 25//7
f 10//10 25//10 26//10
f 53//4 19//4 40//4
f 11//11 18//11 2//11
f 52//6 44//6 28//6
f 37//2 18//2 45//2
f 34//2 19//2 22//2
f 41//2 17//2 39//2
f 38//2 29//2 32//2
f 40//2 35//2 39//2
f 41//2 43//2 42//2
f 23//2 43//2 20//2
f 23//2 45//2 44//2
f 20//2 46//2 21//2
f 24//2 46//2 45//2
f 7//1 47//1 48//1
f 7//1 56//1 8//1
f 4//1 55//1 47//1
f 8//1 55//1 5//1
f 52//1 12//1 11//1
f 57//1 54//1 53//1
f 58//1 53//1 55//1
f 59//1 55//1 56//1
f 60//1 56//1 54//1
f 61//1 3//1 58//1
f 50//1 61//1 58//1
f 49//1 61//1 59//1
f 52//1 51//1 56//1
f 1//1 9//1 55//1
f 9//1 10//1 47//1
f 61//1 60//1 6//1
f 7//1 8//1 5//1
f 53//1 14//1 15//1
f 15//1 1//1 55//1
f 13//1 54//1 16//1
f 54//1 56//1 51//1
f 51//1 2//1 16//1
f 28//2 44//2 27//2
f 44//2 45//2 27//2
f 26//2 25//2 42//2
f 25//2 17//2 41//2
f 35//2 34//2 45//2
f 21//2 24//2 23//2
f 31//2 30//2 40//2
f 40//2 39//2 31//2
f 22//2 38//2 37//2
f 15//3 14//3 30//3
f 22//4 54//4 38//4
f 54//4 13//4 38//4
f 54//4 22//4 19//4
f 16//5 32//5 29//5
f 48//6 47//6 43//6
f 43//6 47//6 42//6
f 47//6 10//6 42//6
f 17//7 1//7 33//7
f 1//7 15//7 33//7
f 12//8 28//8 27//8
f 32//9 16//9 36//9
f 16//9 2//9 36//9
f 9//7 1//7 17//7
f 10//10 9//10 25//10
f 30//4 14//4 40//4
f 14//4 53//4 40//4
f 11//11 27//11 18//11
f 28//6 12//6 52//6
f 52//6 48//6 44//6
f 45//2 34//2 37//2
f 37//2 36//2 18//2
f 34//2 35//2 19//2
f 17//2 33//2 39//2
f 39//2 35//2 46//2
f 46//2 41//2 39//2
f 36//2 37//2 32//2
f 37//2 38//2 32//2
f 40//2 19//2 35//2
f 41//2 46//2 43//2
f 23//2 44//2 43//2
f 23//2 24//2 45//2
f 20//2 43//2 46//2
f 24//2 21//2 46//2
f 7//1 4//1 47//1
f 7//1 48//1 56//1
f 4//1 5//1 55//1
f 8//1 56//1 55//1
f 2//1 51//1 11//1
f 51//1 52//1 11//1
f 53//1 3//1 57//1
f 57//1 6//1 54//1
f 55//1 50//1 58//1
f 58//1 3//1 53//1
f 56//1 49//1 59//1
f 59//1 50//1 55//1
f 54//1 6//1 60//1
f 60//1 49//1 56//1
f 61//1 57//1 3//1
f 50//1 59//1 61//1
f 49//1 60//1 61//1
