# Blender 4.0.1
# www.blender.org
o SM_Grass0
v -0.007319 -0.002401 -0.132547 0.1530 0.2275 0.2000
v -0.156797 -0.002401 -0.195494 0.1373 0.2000 0.1725
v -0.127502 -0.002401 -0.061271 0.1373 0.2078 0.1804
v 0.025910 1.280227 -0.476276 0.1725 0.2627 0.1530
v -0.171636 0.748446 -0.177975 0.3137 0.5764 0.1059
v -0.215421 0.681629 -0.334921 0.2745 0.4471 0.2000
v -0.021257 0.719230 -0.270789 0.3216 0.5725 0.1137
v 0.109607 -0.012428 0.012626 0.1569 0.2314 0.2039
v 0.087471 -0.012428 -0.099548 0.1490 0.2196 0.1922
v 0.020576 -0.012428 -0.029516 0.0784 0.1216 0.1020
v 0.496268 0.949072 0.009198 0.1725 0.2588 0.1530
v 0.115077 0.594673 -0.031171 0.3294 0.5921 0.1451
v 0.199622 0.541369 -0.129906 0.2039 0.2823 0.1176
v 0.243383 0.571366 0.027242 0.3019 0.5530 0.1020
v -0.075257 -0.012428 -0.056046 0.1333 0.1961 0.1725
v -0.070385 -0.012428 0.073254 0.1490 0.2157 0.1922
v 0.016791 -0.012428 0.006827 0.1569 0.2314 0.2039
v -0.042151 1.705052 0.017728 0.1922 0.2980 0.1608
v 0.062484 0.962406 0.183637 0.3372 0.6000 0.1490
v -0.036237 0.909102 0.268199 0.3216 0.5882 0.1412
v -0.055315 0.939098 0.106191 0.3333 0.6118 0.1098
vn -0.3389 0.1224 0.9328
vn 0.9974 -0.0523 -0.0490
vn -0.4066 0.3531 0.8426
vn -0.7206 -0.0581 -0.6909
vn 0.2542 0.9033 -0.3455
vn -0.6600 -0.2156 -0.7197
vn 0.9989 0.0266 0.0382
vn 0.5282 -0.1392 0.8377
vn -0.8783 0.4589 0.1343
vn -0.9740 0.1506 0.1691
vn 0.1978 0.0286 -0.9798
vn 0.6259 0.7731 0.1026
vn 0.4794 -0.2147 0.8509
vn 0.1738 -0.0890 -0.9808
vn 0.9912 -0.0313 -0.1290
vn -0.5653 0.0562 -0.8229
vn 0.9948 0.0885 0.0510
vn -0.3110 0.0034 0.9504
vn -0.0423 0.9765 -0.2114
vn -0.4858 -0.1775 0.8559
vn -0.4496 0.1593 -0.8789
s 1
f 3//1 7//2 5//3
f 6//4 5//3 4//5
f 7//2 6//4 4//5
f 5//3 7//2 4//5
f 2//6 7//2 1//7
f 3//1 6//4 2//6
f 8//8 12//9 10//10
f 13//11 12//9 11//12
f 14//13 13//11 11//12
f 12//9 14//13 11//12
f 8//8 13//11 14//13
f 10//10 13//11 9//14
f 17//15 21//16 19//17
f 20//18 19//17 18//19
f 21//16 20//18 18//19
f 19//17 21//16 18//19
f 16//20 21//16 15//21
f 17//15 20//18 16//20
f 3//1 1//7 7//2
f 2//6 6//4 7//2
f 3//1 5//3 6//4
f 8//8 14//13 12//9
f 8//8 9//14 13//11
f 10//10 12//9 13//11
f 17//15 15//21 21//16
f 16//20 20//18 21//16
f 17//15 19//17 20//18
