# Blender 4.0.1
# www.blender.org
o SM_Grass1
v 0.058187 -0.002401 0.119317 0.1530 0.2235 0.1961
v 0.220379 -0.002401 0.119317 0.1490 0.2157 0.1922
v 0.141287 -0.002401 0.006984 0.1333 0.1961 0.1725
v 0.337454 0.578837 0.302007 0.2823 0.3294 0.1843
v 0.202731 0.300444 0.165287 0.1922 0.2510 0.1882
v 0.303995 0.233627 0.292938 0.1765 0.2432 0.2000
v 0.100161 0.271228 0.309188 0.1843 0.2471 0.1882
v -0.105915 -0.012428 0.030903 0.1530 0.2235 0.1961
v -0.041979 -0.012428 0.125692 0.1412 0.1882 0.1373
v -0.007507 -0.012428 0.035188 0.1490 0.2078 0.1647
v -0.328905 0.873398 0.091326 0.1725 0.2627 0.1530
v -0.019258 0.362480 -0.000951 0.1725 0.2432 0.2000
v -0.058856 0.309176 0.122857 0.1686 0.2392 0.2000
v -0.160177 0.339172 -0.004989 0.1961 0.2588 0.1922
v 0.091109 -0.012428 0.022445 0.1530 0.2235 0.1922
v 0.036438 -0.012428 -0.094828 0.1412 0.2039 0.1725
v -0.018124 -0.012428 0.000224 0.1490 0.2235 0.1961
v -0.113143 0.725517 -0.200292 0.2275 0.2902 0.1608
v -0.100272 0.391725 -0.010818 0.1725 0.2392 0.2000
v -0.042108 0.338421 -0.127066 0.1843 0.2471 0.1882
v 0.038351 0.368418 0.014839 0.1804 0.2471 0.2000
vn -0.9928 0.0152 0.1188
vn -0.0170 0.4741 -0.8803
vn -0.0515 0.4708 -0.8807
vn 0.8266 -0.3271 0.4580
vn 0.3856 0.9115 0.1432
vn -0.8013 0.1167 0.5867
vn 0.9139 -0.3884 0.1184
vn -0.8713 -0.1554 -0.4655
vn 0.8075 0.2705 -0.5243
vn 0.8605 -0.0298 -0.5086
vn 0.2090 0.0611 0.9760
vn -0.4174 0.9041 0.0915
vn -0.8122 -0.1890 -0.5519
vn 0.1427 0.0162 0.9896
vn -0.8583 -0.1884 0.4773
vn 0.7505 0.3062 0.5856
vn -0.8274 0.0954 0.5535
vn -0.0677 -0.1280 -0.9895
vn -0.1882 0.8992 -0.3951
vn 0.1626 -0.0936 -0.9822
vn 0.8009 0.1227 0.5861
s 1
f 1//1 5//2 3//3
f 6//4 5//2 4//5
f 7//6 6//4 4//5
f 5//2 7//6 4//5
f 2//7 7//6 1//1
f 2//7 5//2 6//4
f 8//8 12//9 10//10
f 13//11 12//9 11//12
f 14//13 13//11 11//12
f 12//9 14//13 11//12
f 8//8 13//11 14//13
f 10//10 13//11 9//14
f 17//15 21//16 19//17
f 20//18 19//17 18//19
f 21//16 20//18 18//19
f 19//17 21//16 18//19
f 16//20 21//16 15//21
f 17//15 20//18 16//20
f 1//1 7//6 5//2
f 2//7 6//4 7//6
f 2//7 3//3 5//2
f 8//8 14//13 12//9
f 8//8 9//14 13//11
f 10//10 12//9 13//11
f 17//15 15//21 21//16
f 16//20 20//18 21//16
f 17//15 19//17 20//18
