# Blender 4.0.2
# www.blender.org
o SM_Grass1
v 0.058187 -0.002401 0.119317 0.2157 0.2823 0.1804
v 0.220379 -0.002401 0.119317 0.0941 0.2432 0.1216
v 0.141287 -0.002401 0.006984 0.1333 0.1961 0.1725
v 0.415862 0.532589 0.289592 0.2118 0.2941 0.1530
v 0.232369 0.329129 0.131591 0.1922 0.2510 0.1882
v 0.420578 0.204943 0.368842 0.1255 0.2549 0.1333
v 0.041733 0.274828 0.399046 0.2314 0.2902 0.1843
v -0.105915 -0.012428 0.030903 0.1530 0.2235 0.1961
v -0.041979 -0.012428 0.125692 0.2118 0.2863 0.1608
v -0.007507 -0.012428 0.035188 0.1137 0.2314 0.1333
v -0.477928 0.762893 0.240509 0.1922 0.2706 0.1608
v -0.100176 0.483931 0.041021 0.1373 0.2432 0.1647
v -0.196214 0.354652 0.341295 0.2471 0.3059 0.1882
v -0.441949 0.427403 0.031229 0.1961 0.2588 0.1922
v 0.091109 -0.012428 0.022445 0.2039 0.2863 0.1647
v 0.036438 -0.012428 -0.094828 0.1412 0.2039 0.1725
v -0.018124 -0.012428 0.000224 0.2235 0.2863 0.1843
v -0.000855 0.708464 -0.249200 0.2275 0.2902 0.1608
v -0.144682 0.412432 0.018926 0.2823 0.3216 0.2078
v -0.035605 0.312469 -0.199077 0.1843 0.2471 0.1882
v 0.115282 0.368722 0.067042 0.2706 0.3176 0.1961
vn -0.9905 -0.1372 0.0009
vn -0.0190 0.5013 -0.8650
vn -0.0856 0.3711 -0.9247
vn 0.8059 -0.3642 0.4668
vn 0.5259 0.8505 0.0110
vn -0.7818 0.1373 0.6082
vn 0.7875 -0.6159 -0.0211
vn -0.5950 -0.4837 -0.6419
vn 0.7103 0.5135 -0.4814
vn 0.8463 0.1640 -0.5069
vn 0.1353 -0.1147 0.9841
vn -0.5108 0.8174 0.2662
vn -0.8284 -0.1347 -0.5437
vn 0.4128 -0.3343 0.8472
vn -0.8237 -0.3201 0.4681
vn 0.7502 0.2139 0.6257
vn -0.8361 0.2412 0.4927
vn -0.1090 -0.2225 -0.9688
vn 0.0648 0.8596 -0.5069
vn 0.1729 -0.3077 -0.9356
vn 0.7995 -0.1196 0.5886
s 1
f 1//1 5//2 3//3
f 6//4 5//2 4//5
f 7//6 6//4 4//5
f 5//2 7//6 4//5
f 2//7 7//6 1//1
f 2//7 5//2 6//4
f 8//8 12//9 10//10
f 13//11 12//9 11//12
f 14//13 13//11 11//12
f 12//9 14//13 11//12
f 8//8 13//11 14//13
f 9//14 12//9 13//11
f 17//15 21//16 19//17
f 20//18 19//17 18//19
f 21//16 20//18 18//19
f 19//17 21//16 18//19
f 16//20 21//16 15//21
f 17//15 20//18 16//20
f 1//1 7//6 5//2
f 2//7 6//4 7//6
f 2//7 3//3 5//2
f 8//8 14//13 12//9
f 8//8 9//14 13//11
f 9//14 10//10 12//9
f 17//15 15//21 21//16
f 16//20 20//18 21//16
f 17//15 19//17 20//18
