# Blender 4.0.2
# www.blender.org
o SM_Grass2
v 0.150980 -0.002401 0.038451 0.0824 0.2510 0.1020
v 0.253521 -0.002401 -0.087214 0.2196 0.3098 0.1412
v 0.116483 -0.002401 -0.096953 0.1686 0.2314 0.1961
v 0.850485 1.505341 0.485621 0.2353 0.2902 0.1647
v 0.050825 0.906624 -0.177301 0.3921 0.4471 0.2078
v 0.667969 0.716278 -0.005131 0.3255 0.3490 0.2235
v 0.077146 0.852629 0.499839 0.2941 0.3686 0.1608
v 0.096739 -0.012428 -0.048301 0.2078 0.3059 0.1451
v -0.028688 -0.012428 -0.080084 0.1020 0.2471 0.1255
v 0.010463 -0.012428 0.022284 0.0863 0.2510 0.1020
v -0.603610 1.592226 -0.434673 0.1725 0.2627 0.1530
v -0.098422 0.951687 0.006613 0.3372 0.3647 0.2196
v -0.476500 0.925816 -0.171922 0.2941 0.4039 0.1255
v -0.045504 0.905583 -0.413631 0.3529 0.3843 0.2157
vn -0.3518 -0.4782 0.8047
vn -0.5820 0.3944 -0.7111
vn -0.7702 -0.1111 -0.6281
vn 0.9293 -0.2129 -0.3018
vn 0.5854 0.7165 0.3794
vn -0.5269 0.0484 0.8485
vn 0.7296 -0.4625 -0.5037
vn 0.9862 -0.1485 -0.0727
vn 0.4288 0.3714 0.8235
vn -0.1999 -0.0066 0.9798
vn -0.9570 -0.2443 0.1566
vn -0.4700 0.8305 -0.2989
vn 0.5571 0.1207 -0.8216
vn -0.7231 -0.4548 -0.5199
s 1
f 1//1 5//2 3//3
f 6//4 5//2 4//5
f 7//6 6//4 4//5
f 5//2 7//6 4//5
f 1//1 6//4 7//6
f 2//7 5//2 6//4
f 8//8 12//9 10//10
f 13//11 12//9 11//12
f 14//13 13//11 11//12
f 12//9 14//13 11//12
f 9//14 14//13 8//8
f 9//14 12//9 13//11
f 1//1 7//6 5//2
f 1//1 2//7 6//4
f 2//7 3//3 5//2
f 8//8 14//13 12//9
f 9//14 13//11 14//13
f 9//14 10//10 12//9
