# Blender 4.0.2
# www.blender.org
o P1X
v 1.160006 0.011993 0.080003 0.0784 0.0902 0.1216
v 1.000001 0.011993 0.080003 0.0784 0.0902 0.1216
v 0.520006 0.011993 0.080003 0.0784 0.0902 0.1216
v 0.360002 0.011993 0.080003 0.0784 0.0902 0.1216
v 0.040005 0.011993 0.080003 0.0784 0.0902 0.1216
v -0.120000 0.011993 0.080003 0.0784 0.0902 0.1216
v 1.160006 0.967625 0.080003 0.0784 0.0902 0.1216
v 1.000001 1.139500 0.080003 0.0784 0.0902 0.1216
v 1.160006 1.771994 0.080003 0.0784 0.0902 0.1216
v 1.000001 1.771994 0.080003 0.0784 0.0902 0.1216
v 0.840003 1.771994 0.080003 0.0784 0.0902 0.1216
v 0.520006 1.050125 0.080003 0.0784 0.0902 0.1216
v 0.360002 0.885125 0.080003 0.0784 0.0902 0.1216
v 0.040005 0.885125 0.080003 0.0784 0.0902 0.1216
v -0.120000 0.740750 0.080003 0.0784 0.0902 0.1216
v 0.680005 1.771994 0.080003 0.0784 0.0902 0.1216
v 0.520006 1.771994 0.080003 0.0784 0.0902 0.1216
v 0.360002 1.771994 0.080003 0.0784 0.0902 0.1216
v -0.120000 1.545125 0.080003 0.0784 0.0902 0.1216
v 0.040005 2.019501 0.080003 0.0784 0.0902 0.1216
v 1.160006 0.011993 -0.079996 0.0784 0.0902 0.1216
v 1.000001 0.011993 -0.079995 0.0784 0.0902 0.1216
v 0.520006 0.011993 -0.079995 0.0784 0.0902 0.1216
v 0.360002 0.011993 -0.079995 0.0784 0.0902 0.1216
v 0.040005 0.011993 -0.079995 0.0784 0.0902 0.1216
v -0.120000 0.011993 -0.079995 0.0784 0.0902 0.1216
v 1.160006 0.967625 -0.079995 0.0784 0.0902 0.1216
v 1.000001 1.050125 -0.079995 0.0784 0.0902 0.1216
v 1.160006 1.771994 -0.079995 0.0784 0.0902 0.1216
v 1.000001 1.771994 -0.079995 0.0784 0.0902 0.1216
v 0.840003 1.771994 -0.079995 0.0784 0.0902 0.1216
v 0.520006 1.050125 -0.079995 0.0784 0.0902 0.1216
v 0.360002 0.967625 -0.079995 0.0784 0.0902 0.1216
v 0.040005 0.885125 -0.079995 0.0784 0.0902 0.1216
v -0.120000 0.967625 -0.079995 0.0784 0.0902 0.1216
v 0.680005 1.771994 -0.079995 0.0784 0.0902 0.1216
v 0.360002 1.771994 -0.079995 0.0784 0.0902 0.1216
v 0.520006 1.771994 -0.079995 0.0784 0.0902 0.1216
v -0.120000 1.717000 -0.079995 0.0784 0.0902 0.1216
v 0.040005 1.992001 -0.079995 0.0784 0.0902 0.1216
v 1.000001 1.931999 0.080003 0.0784 0.0902 0.1216
v 1.000001 2.091997 0.080003 0.0784 0.0902 0.1216
v 0.840003 1.931999 0.080003 0.0784 0.0902 0.1216
v 0.840003 2.091997 0.080003 0.0784 0.0902 0.1216
v 0.840003 2.251995 0.080003 0.0784 0.0902 0.1216
v 1.160006 2.251995 0.080003 0.0784 0.0902 0.1216
v 1.000001 2.251995 0.080003 0.0784 0.0902 0.1216
v 1.000001 2.555751 0.080003 0.0784 0.0902 0.1216
v 1.160006 3.532001 0.080003 0.0784 0.0902 0.1216
v 1.000001 3.532001 0.080003 0.0784 0.0902 0.1216
v 0.680005 1.931999 0.080003 0.0784 0.0902 0.1216
v 0.680005 2.091997 0.080003 0.0784 0.0902 0.1216
v 0.680005 2.251995 0.080003 0.0784 0.0902 0.1216
v 0.520006 2.091997 0.080003 0.0784 0.0902 0.1216
v 0.520006 1.931999 0.080003 0.0784 0.0902 0.1216
v 0.520006 2.251995 0.080003 0.0784 0.0902 0.1216
v 0.520006 2.459501 0.080003 0.0784 0.0902 0.1216
v 0.360002 2.251995 0.080003 0.0784 0.0902 0.1216
v -0.120000 2.432001 0.080003 0.0784 0.0902 0.1216
v 0.520006 3.532001 0.080003 0.0784 0.0902 0.1216
v 0.360002 3.532001 0.080003 0.0784 0.0902 0.1216
v 0.040005 3.532001 0.080003 0.0784 0.0902 0.1216
v -0.120000 3.211998 0.080003 0.0784 0.0902 0.1216
v -0.120000 3.371996 0.080003 0.0784 0.0902 0.1216
v -0.120000 3.532001 0.080003 0.0784 0.0902 0.1216
v 1.000001 1.931999 -0.079995 0.0784 0.0902 0.1216
v 1.000001 2.091997 -0.079995 0.0784 0.0902 0.1216
v 0.840003 1.931999 -0.079995 0.0784 0.0902 0.1216
v 0.840003 2.091997 -0.079995 0.0784 0.0902 0.1216
v 0.840003 2.251995 -0.079995 0.0784 0.0902 0.1216
v 1.160006 2.251995 -0.079995 0.0784 0.0902 0.1216
v 1.000001 2.251995 -0.079995 0.0784 0.0902 0.1216
v 1.000001 2.665751 -0.079995 0.0784 0.0902 0.1216
v 1.160006 3.532001 -0.079995 0.0784 0.0902 0.1216
v 1.000001 3.532001 -0.079995 0.0784 0.0902 0.1216
v 0.680005 1.931999 -0.079995 0.0784 0.0902 0.1216
v 0.680005 2.091997 -0.079995 0.0784 0.0902 0.1216
v 0.680005 2.251995 -0.079995 0.0784 0.0902 0.1216
v 0.520006 2.091997 -0.079995 0.0784 0.0902 0.1216
v 0.520006 1.931999 -0.079995 0.0784 0.0902 0.1216
v 0.520006 2.251995 -0.079995 0.0784 0.0902 0.1216
v 0.520006 2.459501 -0.079995 0.0784 0.0902 0.1216
v 0.360002 2.251995 -0.079995 0.0784 0.0902 0.1216
v 0.360002 3.532001 -0.079995 0.0784 0.0902 0.1216
v -0.120000 2.459501 -0.079995 0.0784 0.0902 0.1216
v 0.040005 2.707001 -0.079995 0.0784 0.0902 0.1216
v 0.520006 3.532001 -0.079995 0.0784 0.0902 0.1216
v 0.040005 3.532001 -0.079995 0.0784 0.0902 0.1216
v -0.120000 3.211998 -0.079995 0.0784 0.0902 0.1216
v -0.120000 3.371996 -0.079995 0.0784 0.0902 0.1216
v -0.120000 3.532001 -0.079995 0.0784 0.0902 0.1216
v -1.239994 0.011993 0.080003 0.0784 0.0902 0.1216
v -1.399999 0.011993 0.080003 0.0784 0.0902 0.1216
v -0.439996 1.611996 0.080003 0.0784 0.0902 0.1216
v -0.599994 1.771994 0.080003 0.0784 0.0902 0.1216
v -1.239994 1.771994 0.080004 0.0784 0.0902 0.1216
v -1.239994 0.740750 0.080003 0.0784 0.0902 0.1216
v -1.399999 0.885125 0.080004 0.0784 0.0902 0.1216
v -1.239994 1.611996 0.080004 0.0784 0.0902 0.1216
v -1.399999 2.342626 0.080004 0.0784 0.0902 0.1216
v -1.239994 0.011993 -0.079995 0.0784 0.0902 0.1216
v -1.399999 0.011993 -0.079995 0.0784 0.0902 0.1216
v -0.439996 1.611996 -0.079995 0.0784 0.0902 0.1216
v -0.599994 1.771994 -0.079995 0.0784 0.0902 0.1216
v -1.239994 1.771994 -0.079995 0.0784 0.0902 0.1216
v -1.239994 0.740750 -0.079995 0.0784 0.0902 0.1216
v -1.399999 0.740750 -0.079995 0.0784 0.0902 0.1216
v -1.239994 1.611996 -0.079995 0.0784 0.0902 0.1216
v -1.399999 1.545125 -0.079995 0.0784 0.0902 0.1216
v -0.439996 2.514501 0.080003 0.0784 0.0902 0.1216
v -0.505000 2.569501 0.080003 0.0784 0.0902 0.1216
v -0.599994 2.432001 0.080003 0.0784 0.0902 0.1216
v -0.279998 3.211998 0.080003 0.0784 0.0902 0.1216
v -0.279998 3.371996 0.080003 0.0784 0.0902 0.1216
v -0.439996 3.532001 0.080003 0.0784 0.0902 0.1216
v -0.599994 3.371996 0.080003 0.0784 0.0902 0.1216
v -1.239994 2.432001 0.080004 0.0784 0.0902 0.1216
v -1.239994 3.371996 0.080004 0.0784 0.0902 0.1216
v -1.399999 3.532001 0.080004 0.0784 0.0902 0.1216
v -0.439996 2.514501 -0.079995 0.0784 0.0902 0.1216
v -0.599994 3.371996 -0.079995 0.0784 0.0902 0.1216
v -0.279998 3.211998 -0.079995 0.0784 0.0902 0.1216
v -0.279998 3.371996 -0.079995 0.0784 0.0902 0.1216
v -0.439996 3.532001 -0.079995 0.0784 0.0902 0.1216
v -1.239994 3.371996 -0.079994 0.0784 0.0902 0.1216
v -1.399999 3.532001 -0.079994 0.0784 0.0902 0.1216
v -1.399999 2.267001 -0.079995 0.0784 0.0902 0.1216
v -1.239994 2.569501 -0.079995 0.0784 0.0902 0.1216
vn -0.0000 -0.0000 1.0000
vn -0.0000 -0.0000 -1.0000
vn -0.0000 -1.0000 -0.0000
vn 1.0000 -0.0000 -0.0000
vn -1.0000 -0.0000 -0.0000
vn -0.0000 1.0000 -0.0000
s 0
f 7//1 2//1 1//1
f 9//1 8//1 7//1
f 12//1 4//1 3//1
f 14//1 6//1 5//1
f 17//1 18//1 12//1
f 20//1 19//1 14//1
f 28//2 21//2 22//2
f 30//2 29//2 28//2
f 33//2 23//2 24//2
f 35//2 25//2 26//2
f 37//2 32//2 33//2
f 39//2 34//2 35//2
f 49//1 48//1 46//1
f 53//1 54//1 52//1
f 57//1 58//1 56//1
f 62//1 64//1 63//1
f 44//1 51//1 43//1
f 60//1 58//1 57//1
f 62//1 59//1 20//1
f 70//2 67//2 69//2
f 73//2 71//2 72//2
f 75//2 74//2 73//2
f 84//2 82//2 83//2
f 85//2 40//2 39//2
f 90//2 88//2 89//2
f 89//2 86//2 85//2
f 77//2 68//2 76//2
f 94//1 95//1 99//1
f 97//1 93//1 92//1
f 99//1 98//1 97//1
f 99//1 100//1 98//1
f 104//2 103//2 108//2
f 107//2 101//2 102//2
f 109//2 106//2 107//2
f 110//1 95//1 94//1
f 64//1 113//1 63//1
f 115//1 118//1 116//1
f 115//1 111//1 110//1
f 117//1 100//1 96//1
f 118//1 100//1 117//1
f 123//2 89//2 122//2
f 126//2 121//2 125//2
f 127//2 105//2 109//2
f 121//2 120//2 104//2
f 126//2 128//2 127//2
f 41//1 11//1 10//1
f 80//2 36//2 38//2
f 2//3 21//3 1//3
f 4//3 23//3 3//3
f 6//3 25//3 5//3
f 21//4 7//4 1//4
f 28//5 2//5 8//5
f 30//5 8//5 10//5
f 30//6 9//6 29//6
f 11//3 30//3 10//3
f 27//4 9//4 7//4
f 23//4 12//4 3//4
f 33//5 4//5 13//5
f 25//4 14//4 5//4
f 35//5 6//5 15//5
f 32//4 17//4 12//4
f 37//6 17//6 38//6
f 37//5 13//5 18//5
f 17//3 36//3 16//3
f 35//5 15//5 19//5
f 34//4 20//4 14//4
f 68//5 11//5 43//5
f 68//6 41//6 66//6
f 70//5 44//5 45//5
f 44//3 67//3 42//3
f 68//4 44//4 43//4
f 73//5 47//5 48//5
f 47//3 71//3 46//3
f 71//4 49//4 46//4
f 70//6 47//6 72//6
f 67//4 47//4 42//4
f 73//5 48//5 50//5
f 75//6 49//6 74//6
f 36//4 51//4 16//4
f 80//6 51//6 76//6
f 77//4 53//4 52//4
f 54//3 77//3 52//3
f 77//5 51//5 52//5
f 81//4 57//4 56//4
f 58//3 81//3 56//3
f 81//6 53//6 78//6
f 85//5 19//5 59//5
f 81//5 54//5 56//5
f 84//5 58//5 61//5
f 84//6 60//6 87//6
f 85//5 59//5 63//5
f 91//5 64//5 65//5
f 91//6 62//6 88//6
f 82//4 60//4 57//4
f 86//4 62//4 20//4
f 51//3 68//3 43//3
f 77//6 44//6 69//6
f 93//3 101//3 92//3
f 105//6 95//6 104//6
f 99//3 103//3 94//3
f 101//4 97//4 92//4
f 107//5 93//5 98//5
f 106//4 99//4 97//4
f 109//5 98//5 100//5
f 103//4 110//4 94//4
f 104//5 95//5 112//5
f 113//3 89//3 63//3
f 123//6 64//6 90//6
f 123//5 113//5 114//5
f 118//3 125//3 116//3
f 126//6 115//6 124//6
f 120//4 115//4 110//4
f 105//4 117//4 96//4
f 126//5 100//5 119//5
f 121//5 112//5 116//5
f 128//4 118//4 117//4
f 30//4 41//4 10//4
f 80//5 17//5 55//5
f 7//1 8//1 2//1
f 9//1 10//1 8//1
f 12//1 13//1 4//1
f 14//1 15//1 6//1
f 12//1 18//1 13//1
f 14//1 19//1 15//1
f 28//2 27//2 21//2
f 28//2 29//2 27//2
f 33//2 32//2 23//2
f 35//2 34//2 25//2
f 37//2 38//2 32//2
f 39//2 40//2 34//2
f 41//1 43//1 11//1
f 42//1 45//1 44//1
f 46//1 48//1 47//1
f 47//1 45//1 42//1
f 49//1 50//1 48//1
f 51//1 55//1 16//1
f 20//1 59//1 19//1
f 53//1 56//1 54//1
f 60//1 61//1 58//1
f 62//1 63//1 59//1
f 62//1 65//1 64//1
f 44//1 52//1 51//1
f 68//2 66//2 31//2
f 70//2 72//2 67//2
f 80//2 76//2 36//2
f 79//2 78//2 77//2
f 83//2 82//2 81//2
f 85//2 86//2 40//2
f 81//2 78//2 79//2
f 90//2 91//2 88//2
f 89//2 88//2 86//2
f 77//2 69//2 68//2
f 73//2 74//2 71//2
f 84//2 87//2 82//2
f 95//1 96//1 99//1
f 97//1 98//1 93//1
f 99//1 96//1 100//1
f 105//2 104//2 108//2
f 107//2 106//2 101//2
f 109//2 108//2 106//2
f 109//2 105//2 108//2
f 110//1 111//1 95//1
f 111//1 112//1 95//1
f 64//1 114//1 113//1
f 115//1 116//1 111//1
f 118//1 119//1 100//1
f 115//1 119//1 118//1
f 111//1 116//1 112//1
f 104//2 120//2 103//2
f 123//2 90//2 89//2
f 126//2 124//2 121//2
f 121//2 124//2 120//2
f 127//2 128//2 105//2
f 126//2 125//2 128//2
f 16//1 55//1 17//1
f 31//2 66//2 30//2
f 2//3 22//3 21//3
f 4//3 24//3 23//3
f 6//3 26//3 25//3
f 21//4 27//4 7//4
f 28//5 22//5 2//5
f 30//5 28//5 8//5
f 30//6 10//6 9//6
f 11//3 31//3 30//3
f 27//4 29//4 9//4
f 23//4 32//4 12//4
f 33//5 24//5 4//5
f 25//4 34//4 14//4
f 35//5 26//5 6//5
f 32//4 38//4 17//4
f 37//6 18//6 17//6
f 17//3 38//3 36//3
f 34//4 40//4 20//4
f 37//5 33//5 13//5
f 39//5 35//5 19//5
f 68//5 31//5 11//5
f 68//6 43//6 41//6
f 70//5 69//5 44//5
f 44//3 69//3 67//3
f 68//4 69//4 44//4
f 73//5 72//5 47//5
f 47//3 72//3 71//3
f 70//6 45//6 47//6
f 67//4 72//4 47//4
f 75//6 50//6 49//6
f 75//5 73//5 50//5
f 36//4 76//4 51//4
f 80//6 55//6 51//6
f 77//4 78//4 53//4
f 54//3 79//3 77//3
f 77//5 76//5 51//5
f 81//4 82//4 57//4
f 58//3 83//3 81//3
f 84//5 83//5 58//5
f 81//6 56//6 53//6
f 85//5 39//5 19//5
f 40//4 86//4 20//4
f 81//5 79//5 54//5
f 84//6 61//6 60//6
f 91//5 90//5 64//5
f 91//6 65//6 62//6
f 86//4 88//4 62//4
f 89//5 85//5 63//5
f 71//4 74//4 49//4
f 82//4 87//4 60//4
f 51//3 76//3 68//3
f 77//6 52//6 44//6
f 93//3 102//3 101//3
f 105//6 96//6 95//6
f 99//3 108//3 103//3
f 101//4 106//4 97//4
f 107//5 102//5 93//5
f 106//4 108//4 99//4
f 109//5 107//5 98//5
f 103//4 120//4 110//4
f 113//3 122//3 89//3
f 123//6 114//6 64//6
f 123//5 122//5 113//5
f 116//3 125//3 121//3
f 120//4 124//4 115//4
f 127//5 109//5 100//5
f 105//4 128//4 117//4
f 128//4 125//4 118//4
f 121//5 104//5 112//5
f 126//5 127//5 100//5
f 126//6 119//6 115//6
f 30//4 66//4 41//4
f 80//5 38//5 17//5
