# Blender 4.0.1
# www.blender.org
o SM_PC
v -0.133392 0.045843 0.400895 0.1294 0.1294 0.1490
v -0.137873 0.036882 0.405376 0.2667 0.2667 0.3098
v -0.128912 0.041362 0.400895 0.1294 0.1294 0.1490
v -0.133392 0.721647 0.400895 0.2157 0.2157 0.2471
v -0.128912 0.726127 0.400895 0.2157 0.2157 0.2471
v -0.137873 0.730608 0.405376 0.4589 0.4589 0.5255
v -0.170274 0.000000 -0.400895 0.4823 0.4784 0.5569
v -0.174755 0.004481 -0.400895 0.4902 0.4863 0.5530
v -0.170274 0.004481 -0.405376 0.5059 0.5059 0.5373
v -0.170274 0.767489 -0.400895 0.7216 0.7176 0.8196
v -0.170274 0.763009 -0.405376 0.6197 0.6197 0.6706
v -0.174755 0.763009 -0.400895 0.6393 0.6393 0.6980
v 0.133392 0.045843 0.400895 0.1373 0.1373 0.1608
v 0.128912 0.041362 0.400895 0.1373 0.1333 0.1569
v 0.137873 0.036882 0.405376 0.2823 0.2784 0.3255
v 0.133392 0.721647 0.400895 0.2157 0.2157 0.2471
v 0.137873 0.730608 0.405376 0.4589 0.4589 0.5255
v 0.128912 0.726127 0.400895 0.2157 0.2157 0.2471
v 0.170274 0.000000 -0.400895 0.3608 0.3568 0.4118
v 0.170274 0.004481 -0.405376 0.4118 0.4118 0.4471
v 0.174755 0.004481 -0.400895 0.3608 0.3568 0.4118
v 0.170274 0.767489 -0.400895 0.6863 0.6824 0.7804
v 0.174755 0.763009 -0.400895 0.6863 0.6824 0.7764
v 0.170274 0.763009 -0.405376 0.6510 0.6471 0.7255
v -0.170274 0.000000 0.400895 0.3490 0.3451 0.4000
v -0.170274 0.004481 0.405376 0.3412 0.3372 0.3921
v -0.174755 0.004481 0.400895 0.3490 0.3451 0.4000
v -0.170274 0.763009 0.405376 0.6589 0.6550 0.7490
v -0.170274 0.767489 0.400895 0.6863 0.6824 0.7804
v -0.174755 0.763009 0.400895 0.6824 0.6785 0.7764
v 0.170274 0.767489 0.400895 0.7020 0.6980 0.8000
v 0.170274 0.763009 0.405376 0.6745 0.6706 0.7686
v 0.174755 0.763009 0.400895 0.6941 0.6902 0.7921
v 0.170274 0.000000 0.400895 0.3490 0.3451 0.4000
v 0.174755 0.004481 0.400895 0.3490 0.3451 0.4000
v 0.170274 0.004481 0.405376 0.3412 0.3372 0.3921
v -0.133392 0.045843 0.400895 0.1294 0.1294 0.1490
v -0.128912 0.041362 0.400895 0.1294 0.1294 0.1490
v -0.128912 0.045843 0.396415 0.1333 0.1412 0.1490
v -0.133392 0.721647 0.400895 0.2157 0.2157 0.2471
v -0.128912 0.721647 0.396415 0.0784 0.0824 0.0902
v -0.128912 0.726127 0.400895 0.2157 0.2157 0.2471
v 0.133392 0.721647 0.400895 0.2157 0.2157 0.2471
v 0.128912 0.726127 0.400895 0.2157 0.2157 0.2471
v 0.128912 0.721647 0.396415 0.1333 0.1412 0.1490
v 0.133392 0.045843 0.400895 0.1373 0.1373 0.1608
v 0.128912 0.045843 0.396415 0.0784 0.0824 0.0902
v 0.128912 0.041362 0.400895 0.1373 0.1333 0.1569
vn -0.5350 -0.1067 -0.8381
vn 0.0103 -0.0032 -0.9999
vn -0.0135 -0.0064 -0.9999
vn 0.1023 0.9811 -0.1642
vn 0.0106 0.9999 0.0031
vn 0.0133 0.9999 -0.0060
vn -0.5562 0.0822 0.8270
vn 0.0207 0.0104 0.9997
vn -0.0162 0.0056 0.9999
vn 0.1604 0.1256 0.9790
vn 0.0893 -0.0410 0.9952
vn -0.0819 0.0347 0.9960
vn -0.9263 -0.1518 0.3448
vn -1.0000 -0.0022 -0.0019
vn -1.0000 -0.0064 0.0061
vn -0.9297 0.1930 0.3136
vn -0.6911 0.0653 0.7198
vn -0.6732 0.0685 0.7363
vn -0.1173 0.8887 0.4433
vn -0.0626 0.7133 0.6980
vn -0.0590 0.7266 0.6845
vn 0.9263 -0.1518 -0.3448
vn 1.0000 -0.0022 0.0019
vn 1.0000 -0.0064 -0.0061
vn 0.2722 -0.4009 0.8747
vn 0.0626 -0.7133 0.6980
vn 0.0590 -0.7266 0.6845
vn -0.1023 -0.9811 -0.1642
vn -0.0106 -0.9999 0.0031
vn -0.0133 -0.9999 -0.0060
vn 0.0622 -0.1556 0.9859
vn -0.3943 0.0627 0.9169
vn -0.1613 -0.1259 0.9788
vn 0.0632 0.3307 0.9416
vn 0.3943 -0.0627 0.9169
vn 0.7369 -0.1557 0.6578
vn 0.6832 -0.0771 0.7262
vn -0.5498 0.4898 -0.6766
vn 0.6712 0.4932 -0.5534
vn -0.4846 0.5544 0.6766
vn 0.5498 0.4898 0.6766
vn 0.4846 -0.5544 0.6766
vn 0.6969 -0.2064 0.6868
vn 0.6730 -0.0902 0.7341
vn 0.6692 -0.4951 0.5541
vn 0.9936 0.0355 0.1069
vn -0.8609 -0.5079 -0.0294
vn -0.8090 0.5877 0.0112
s 1
f 11//1 20//2 9//3
f 10//4 31//5 22//6
f 45//7 39//8 47//9
f 2//10 36//11 15//12
f 30//13 8//14 27//15
f 16//16 46//17 13//18
f 14//19 38//20 3//21
f 23//22 35//23 21//24
f 5//25 44//26 18//27
f 19//28 25//29 7//30
f 6//31 26//32 2//10
f 17//33 28//34 6//31
f 15//12 32//35 17//33
f 1//36 2//10 3//21
f 4//37 5//25 6//31
f 7//30 8//14 9//3
f 10//4 11//1 12//38
f 13//18 14//19 15//12
f 16//16 17//33 18//27
f 19//28 20//2 21//24
f 22//6 23//22 24//39
f 25//29 26//32 27//15
f 28//34 29//40 30//13
f 31//5 32//35 33//41
f 34//42 35//23 36//11
f 37//43 38//20 39//8
f 40//44 41//45 42//46
f 43//47 44//26 45//7
f 46//17 47//9 48//48
f 25//29 8//14 7//30
f 28//34 27//15 26//32
f 10//4 30//13 29//40
f 9//3 12//38 11//1
f 7//30 20//2 19//28
f 22//6 11//1 10//4
f 21//24 24//39 23//22
f 19//28 35//23 34//42
f 31//5 23//22 22//6
f 36//11 33//41 32//35
f 34//42 26//32 25//29
f 29//40 32//35 31//5
f 4//37 2//10 1//36
f 16//16 15//12 17//33
f 15//12 3//21 2//10
f 6//31 18//27 17//33
f 41//45 37//43 39//8
f 47//9 43//47 45//7
f 48//48 39//8 38//20
f 42//46 45//7 44//26
f 46//17 14//19 13//18
f 1//36 38//20 37//43
f 5//25 40//44 42//46
f 16//16 44//26 43//47
f 1//36 40//44 4//37
f 11//1 24//39 20//2
f 10//4 29//40 31//5
f 45//7 41//45 39//8
f 2//10 26//32 36//11
f 30//13 12//38 8//14
f 16//16 43//47 46//17
f 14//19 48//48 38//20
f 23//22 33//41 35//23
f 5//25 42//46 44//26
f 19//28 34//42 25//29
f 6//31 28//34 26//32
f 17//33 32//35 28//34
f 15//12 36//11 32//35
f 25//29 27//15 8//14
f 28//34 30//13 27//15
f 10//4 12//38 30//13
f 9//3 8//14 12//38
f 7//30 9//3 20//2
f 22//6 24//39 11//1
f 21//24 20//2 24//39
f 19//28 21//24 35//23
f 31//5 33//41 23//22
f 36//11 35//23 33//41
f 34//42 36//11 26//32
f 29//40 28//34 32//35
f 4//37 6//31 2//10
f 16//16 13//18 15//12
f 15//12 14//19 3//21
f 6//31 5//25 18//27
f 41//45 40//44 37//43
f 47//9 46//17 43//47
f 48//48 47//9 39//8
f 42//46 41//45 45//7
f 46//17 48//48 14//19
f 1//36 3//21 38//20
f 5//25 4//37 40//44
f 16//16 18//27 44//26
f 1//36 37//43 40//44
