# Blender 4.0.2
# www.blender.org
o SM_River
v -0.231151 0.000000 1.703902 0.0824 0.1882 0.1882
v 2.008869 0.225862 1.662893 0.0706 0.1725 0.1961
v -2.770605 0.000000 -3.105568 0.0549 0.1412 0.1569
v 0.229722 0.225862 -1.706633 0.1098 0.2745 0.3137
v -2.208825 -0.241522 2.685091 0.1020 0.2667 0.3098
v -4.767630 -0.241522 -2.161028 0.0510 0.1255 0.1373
v -5.177470 -0.624699 3.616895 0.1569 0.4706 0.5255
v -7.486342 -0.624699 -0.755877 0.0392 0.0980 0.1098
v -7.132122 -1.569748 5.985938 0.1451 0.4275 0.4784
v -9.909440 -1.569748 0.725978 0.0392 0.0941 0.1098
v -9.190610 -3.129695 10.056068 0.0784 0.2235 0.2823
v -13.199694 -3.129695 2.463269 0.0471 0.1176 0.1373
v 5.214728 0.484084 -1.168098 0.0824 0.2235 0.2549
v 3.905566 0.484084 -3.647520 0.1216 0.3216 0.3921
v -0.231151 0.000000 1.703902 0.0000 0.0000 0.0000
v -2.770605 0.000000 -3.105568 0.0000 0.0000 0.0000
v 8.305197 0.516609 -2.826710 0.0706 0.2863 0.2549
v 6.996035 0.516609 -5.306131 0.1020 0.3686 0.3529
v 10.686312 0.905853 -5.109509 0.0902 0.2392 0.2706
v 9.377151 0.905853 -7.588929 0.0980 0.2667 0.2941
v 13.318096 2.446555 -7.325186 0.0863 0.2471 0.2941
v 12.429064 2.607240 -9.627629 0.0941 0.2902 0.3412
v 16.280832 5.439447 -10.301224 0.0980 0.3961 0.3843
v 15.053596 5.721131 -12.680811 0.1020 0.2314 0.2314
v 18.424770 6.783393 -13.270785 0.0902 0.2275 0.2745
v 16.381296 7.805938 -15.936451 0.0824 0.2118 0.2627
v 20.863903 9.125892 -16.014439 0.0863 0.2588 0.2863
v 18.257973 10.332694 -19.675983 0.0980 0.2863 0.2863
v 22.367731 11.866912 -19.582920 0.0863 0.2510 0.2980
v 17.631405 12.217540 -23.277163 0.0392 0.0941 0.1098
v 22.653900 13.579282 -22.423824 0.0549 0.1451 0.2000
v 19.045473 13.579282 -25.220463 0.0392 0.0941 0.1098
v 21.694082 13.202896 -28.004890 0.0392 0.0941 0.1098
v 18.914898 13.028356 -28.332155 0.0392 0.0941 0.1098
v -2.135741 0.000000 -1.903201 0.1098 0.3059 0.3294
v -1.500878 0.000000 -0.700833 0.1098 0.3098 0.3490
v -0.866014 0.000000 0.501534 0.0824 0.2078 0.2471
v 1.564082 0.225862 0.820512 0.0902 0.2235 0.2353
v 1.119295 0.225862 -0.021870 0.0863 0.2157 0.2471
v 0.674509 0.225862 -0.864251 0.0824 0.2039 0.2471
v -4.127929 -0.241522 -0.949499 0.1255 0.3529 0.3490
v -3.488227 -0.241522 0.262031 0.1020 0.2863 0.3019
v -2.848526 -0.241522 1.473561 0.0941 0.2432 0.2784
v -6.909124 -0.624699 0.337316 0.0784 0.2980 0.2706
v -6.331906 -0.624699 1.430509 0.0667 0.3137 0.2745
v -5.754688 -0.624699 2.523702 0.1176 0.4000 0.4118
v -9.215111 -1.569748 2.040968 0.0627 0.1647 0.2196
v -8.520781 -1.569748 3.355958 0.0863 0.2588 0.3137
v -7.826451 -1.569748 4.670948 0.1451 0.4510 0.4941
v -12.197423 -3.129695 4.361468 0.0784 0.2549 0.3176
v -11.195152 -3.129695 6.259668 0.1216 0.4275 0.4432
v -10.192881 -3.129695 8.157867 0.1059 0.2706 0.2941
v 4.887437 0.484084 -1.787953 0.1255 0.3490 0.4000
v 4.560147 0.484084 -2.407809 0.1255 0.3490 0.4118
v 4.232856 0.484084 -3.027664 0.1176 0.3255 0.3843
v 7.977907 0.516609 -3.446565 0.0784 0.3294 0.2902
v 7.650616 0.516609 -4.066421 0.0745 0.3490 0.3059
v 7.323326 0.516609 -4.686275 0.0824 0.3608 0.3216
v 10.359022 0.905853 -5.729364 0.1020 0.2667 0.2941
v 10.031732 0.905853 -6.349219 0.1020 0.2784 0.3137
v 9.704441 0.905853 -6.969074 0.1137 0.2980 0.3294
v 13.095839 2.486726 -7.900797 0.0863 0.2471 0.3019
v 12.873580 2.526898 -8.476408 0.0863 0.2549 0.3098
v 12.651322 2.567069 -9.052019 0.0902 0.2706 0.3255
v 15.974026 5.509869 -10.896121 0.0941 0.3686 0.3568
v 15.667216 5.580289 -11.491018 0.0980 0.3333 0.3255
v 15.360407 5.650710 -12.085915 0.1020 0.2706 0.2706
v 17.913902 7.039030 -13.937201 0.0627 0.1647 0.2275
v 17.403032 7.294666 -14.603618 0.0588 0.1490 0.2196
v 16.892166 7.550302 -15.270035 0.0667 0.1608 0.2235
v 20.212421 9.427592 -16.929825 0.0941 0.3725 0.3529
v 19.560940 9.729293 -17.845211 0.0706 0.3176 0.2627
v 18.909456 10.030993 -18.760597 0.0706 0.2902 0.2314
v 21.183651 11.954569 -20.506481 0.0824 0.2353 0.2823
v 19.999569 12.042226 -21.430040 0.1059 0.3255 0.3568
v 18.815487 12.129883 -22.353600 0.1059 0.3568 0.3921
v 21.751793 13.579282 -23.122986 0.0588 0.1569 0.1882
v 20.849686 13.579282 -23.822144 0.0588 0.1490 0.1608
v 19.947578 13.579282 -24.521305 0.0471 0.1137 0.1216
v 20.999287 13.159261 -28.086704 0.0392 0.0941 0.1098
v 20.304491 13.115625 -28.168522 0.0392 0.0941 0.1098
v 19.609695 13.071991 -28.250338 0.0392 0.0941 0.1098
v -9.190610 -3.129695 10.056068 0.0706 0.2078 0.2588
v -12.197423 -3.129695 4.361468 0.0745 0.2471 0.3137
v -11.195152 -3.129695 6.259668 0.1216 0.4275 0.4432
v -10.192881 -3.129695 8.157867 0.1020 0.2706 0.2941
v -15.361818 -6.854278 16.605022 0.0549 0.1373 0.1608
v -19.803032 -7.368270 9.546211 0.0549 0.1569 0.1725
v -18.800760 -7.368270 11.444410 0.0980 0.2784 0.2980
v -17.798491 -7.368270 13.342610 0.1216 0.3608 0.3961
v -25.548862 -13.628153 24.559879 0.0392 0.0941 0.1098
v -30.269989 -13.994716 17.208981 0.0471 0.1333 0.1530
v -28.700867 -14.104068 19.706409 0.0863 0.2392 0.2627
v -27.985537 -14.142145 21.297466 0.1020 0.3019 0.3294
v -35.654583 -18.045092 27.809080 0.0392 0.0941 0.1098
v -39.143459 -18.059723 21.600481 0.0392 0.0941 0.1098
v -38.076702 -18.199636 23.561646 0.0392 0.0941 0.1098
v -35.882259 -17.750679 26.747843 0.0392 0.0941 0.1098
vn -0.0977 0.9939 0.0516
vn -0.0728 0.9966 0.0384
vn -0.0971 0.9940 0.0513
vn -0.1040 0.9931 0.0549
vn -0.1061 0.9928 0.0560
vn -0.1957 0.9752 0.1033
vn -0.3063 0.9381 0.1617
vn -0.3186 0.9329 0.1682
vn -0.3419 0.9222 0.1805
vn -0.2320 0.9650 0.1225
vn -0.0716 0.9967 0.0377
vn -0.0426 0.9988 0.0225
vn -0.0348 0.9992 0.0184
vn -0.0394 0.9990 0.0208
vn -0.0557 0.9980 0.0294
vn -0.2055 0.9726 0.1085
vn -0.2477 0.9597 0.1327
vn -0.4347 0.8720 0.2250
vn -0.4575 0.8519 0.2548
vn -0.4454 0.8464 0.2919
vn -0.3753 0.8679 0.3255
vn -0.1877 0.8943 0.4062
vn -0.2081 0.8715 0.4440
vn -0.2752 0.8298 0.4855
vn -0.2865 0.8278 0.4823
vn -0.3138 0.8173 0.4833
vn -0.3149 0.8219 0.4746
vn -0.1930 0.9409 0.2783
vn -0.1451 0.9730 0.1797
vn 0.0104 0.9970 -0.0770
vn -0.0039 0.9959 -0.0904
vn -0.0854 0.9952 0.0488
vn 0.0180 0.9888 -0.1478
vn -0.0415 0.9841 -0.1725
vn -0.1362 0.9765 0.1672
vn 0.0056 0.9933 -0.1154
vn -0.1409 0.9746 0.1738
vn -0.2975 0.8470 0.4405
vn -0.3020 0.8359 0.4583
vn -0.3090 0.8285 0.4671
vn -0.2847 0.8337 0.4731
vn -0.2711 0.8370 0.4753
vn -0.2793 0.8321 0.4791
vn -0.2178 0.8554 0.4699
vn -0.2311 0.8592 0.4566
vn -0.2196 0.8655 0.4503
vn -0.3755 0.8399 0.3919
vn -0.4273 0.8340 0.3489
vn -0.4013 0.8516 0.3372
vn -0.4947 0.8200 0.2877
vn -0.4678 0.8453 0.2581
vn -0.4627 0.8486 0.2565
vn -0.2944 0.9424 0.1591
vn -0.2522 0.9582 0.1350
vn -0.2500 0.9590 0.1339
vn -0.0725 0.9966 0.0384
vn -0.0256 0.9996 0.0135
vn -0.0716 0.9967 0.0378
vn -0.3276 0.9289 0.1730
vn -0.1963 0.9751 0.1036
vn -0.1018 0.9934 0.0537
vn -0.0979 0.9938 0.0517
vn -0.1904 0.9766 0.1005
vn -0.2094 0.9723 0.1035
vn -0.3870 0.8946 0.2235
vn -0.4156 0.8896 0.1896
vn -0.3860 0.8997 0.2038
vn -0.4191 0.8914 0.1726
vn -0.3677 0.9069 0.2056
vn -0.3868 0.9045 0.1796
vn -0.3533 0.9036 0.2424
vn -0.4179 0.8921 0.1716
vn -0.3262 0.9323 0.1564
vn -0.3292 0.9263 0.1835
vn -0.3363 0.9280 0.1601
vn -0.1943 0.9756 0.1026
vn -0.0693 0.9969 0.0366
vn -0.3718 0.9073 0.1963
vn -0.3074 0.9226 0.2330
s 1
f 35//1 4//2 3//3
f 3//3 41//4 35//1
f 6//5 44//6 41//4
f 44//6 10//7 47//8
f 47//8 12//9 50//10
f 38//11 13//12 53//13
f 53//13 17//14 56//15
f 56//15 19//16 59//17
f 59//17 21//18 62//19
f 62//19 23//20 65//21
f 65//21 25//22 68//23
f 68//23 27//24 71//25
f 71//25 29//26 74//27
f 74//27 31//28 77//29
f 77//29 33//30 80//31
f 32//32 82//33 34//34
f 79//35 81//36 82//33
f 78//37 80//31 81//36
f 30//38 79//35 32//32
f 76//39 78//37 79//35
f 75//40 77//29 78//37
f 28//41 76//39 30//38
f 73//42 75//40 76//39
f 72//43 74//27 75//40
f 26//44 73//42 28//41
f 70//45 72//43 73//42
f 69//46 71//25 72//43
f 24//47 70//45 26//44
f 67//48 69//46 70//45
f 66//49 68//23 69//46
f 22//50 67//48 24//47
f 64//51 66//49 67//48
f 63//52 65//21 66//49
f 20//53 64//51 22//50
f 61//54 63//52 64//51
f 60//55 62//19 63//52
f 18//56 61//54 20//53
f 58//15 60//55 61//54
f 57//15 59//17 60//55
f 14//57 58//15 18//56
f 55//13 57//15 58//15
f 54//13 56//15 57//15
f 4//2 55//13 14//57
f 40//58 54//13 55//13
f 39//58 53//13 54//13
f 9//59 52//9 11//9
f 49//8 51//9 52//9
f 48//8 50//10 51//9
f 7//60 49//8 9//59
f 46//6 48//8 49//8
f 45//6 47//8 48//8
f 43//4 7//60 5//61
f 42//4 46//6 43//4
f 41//4 45//6 42//4
f 37//1 5//61 1//62
f 36//1 43//4 37//1
f 35//1 42//4 36//1
f 1//62 38//11 37//1
f 37//1 39//58 36//1
f 36//1 40//58 35//1
f 51//9 86//63 52//9
f 50//10 85//63 51//9
f 52//9 83//64 11//9
f 86//63 89//65 90//66
f 85//63 88//67 89//65
f 83//64 90//66 87//68
f 90//66 93//69 94//70
f 89//65 92//71 93//69
f 90//66 91//72 87//68
f 93//69 98//73 94//70
f 92//71 97//74 93//69
f 94//70 95//75 91//72
f 35//1 40//58 4//2
f 3//3 6//5 41//4
f 6//5 8//76 44//6
f 44//6 8//76 10//7
f 47//8 10//7 12//9
f 38//11 2//77 13//12
f 53//13 13//12 17//14
f 56//15 17//14 19//16
f 59//17 19//16 21//18
f 62//19 21//18 23//20
f 65//21 23//20 25//22
f 68//23 25//22 27//24
f 71//25 27//24 29//26
f 74//27 29//26 31//28
f 77//29 31//28 33//30
f 32//32 79//35 82//33
f 79//35 78//37 81//36
f 78//37 77//29 80//31
f 30//38 76//39 79//35
f 76//39 75//40 78//37
f 75//40 74//27 77//29
f 28//41 73//42 76//39
f 73//42 72//43 75//40
f 72//43 71//25 74//27
f 26//44 70//45 73//42
f 70//45 69//46 72//43
f 69//46 68//23 71//25
f 24//47 67//48 70//45
f 67//48 66//49 69//46
f 66//49 65//21 68//23
f 22//50 64//51 67//48
f 64//51 63//52 66//49
f 63//52 62//19 65//21
f 20//53 61//54 64//51
f 61//54 60//55 63//52
f 60//55 59//17 62//19
f 18//56 58//15 61//54
f 58//15 57//15 60//55
f 57//15 56//15 59//17
f 14//57 55//13 58//15
f 55//13 54//13 57//15
f 54//13 53//13 56//15
f 4//2 40//58 55//13
f 40//58 39//58 54//13
f 39//58 38//11 53//13
f 9//59 49//8 52//9
f 49//8 48//8 51//9
f 48//8 47//8 50//10
f 7//60 46//6 49//8
f 46//6 45//6 48//8
f 45//6 44//6 47//8
f 43//4 46//6 7//60
f 42//4 45//6 46//6
f 41//4 44//6 45//6
f 37//1 43//4 5//61
f 36//1 42//4 43//4
f 35//1 41//4 42//4
f 1//62 2//77 38//11
f 37//1 38//11 39//58
f 36//1 39//58 40//58
f 51//9 85//63 86//63
f 50//10 84//78 85//63
f 52//9 86//63 83//64
f 86//63 85//63 89//65
f 85//63 84//78 88//67
f 83//64 86//63 90//66
f 90//66 89//65 93//69
f 89//65 88//67 92//71
f 90//66 94//70 91//72
f 93//69 97//74 98//73
f 92//71 96//79 97//74
f 94//70 98//73 95//75
l 16 15
