# Blender 4.0.1
# www.blender.org
o SM_Rock2
v 0.232815 -0.230648 1.175491 0.3451 0.4039 0.2863
v -1.097833 -0.184115 -0.164023 0.3921 0.4667 0.3294
v -0.668741 1.145251 -0.283618 0.5608 0.5725 0.5373
v 1.099959 -0.190543 0.120910 0.3804 0.4432 0.3255
v 0.184830 0.687665 0.698611 0.4235 0.4550 0.3961
v -0.444771 -0.090475 -0.473164 0.3216 0.3765 0.2706
v 0.160387 -0.149955 -0.622982 0.3176 0.3804 0.2706
v 0.343524 1.089145 -0.297859 0.5608 0.5686 0.5412
v 1.152192 0.398574 0.132825 0.3921 0.4510 0.3333
v -0.618052 0.354689 -0.419164 0.4118 0.4667 0.3568
v -0.206519 -0.134313 -0.980955 0.3490 0.4196 0.2980
v -0.381436 -0.172339 0.412048 0.3019 0.3568 0.2549
v 0.201407 0.323186 1.140644 0.3686 0.4157 0.3216
v -1.065687 0.722554 -0.117736 0.4510 0.5059 0.4078
v -0.122213 0.870655 -0.567179 0.5333 0.5451 0.5059
v 0.587330 -0.152050 0.568692 0.3059 0.3608 0.2549
v 0.250543 1.170734 0.639000 0.4980 0.5137 0.4745
v 0.076594 1.272989 0.243910 0.5490 0.5569 0.5294
v 0.042550 1.273636 -0.065968 0.5686 0.5764 0.5490
v 0.717567 0.989282 0.181239 0.5294 0.5490 0.5059
v 0.643522 0.258372 0.567942 0.3333 0.3804 0.2902
v 0.700484 0.327214 -0.485449 0.3372 0.3921 0.2863
v 0.475486 0.787208 -0.409439 0.4275 0.4628 0.3882
v -0.188186 0.544758 -0.557188 0.4000 0.4628 0.3568
v -0.749679 0.813897 -0.482336 0.4902 0.5294 0.4510
v -0.393090 0.227797 0.331919 0.3961 0.4471 0.3568
v -0.206891 1.187266 0.568361 0.5412 0.5530 0.5255
vn -0.4040 0.5981 0.6922
vn -0.4465 0.8310 -0.3317
vn -0.9786 0.1986 0.0537
vn -0.5112 0.1677 -0.8429
vn 0.0664 0.3533 -0.9332
vn -0.0200 0.1518 -0.9882
vn 0.4805 0.3979 -0.7815
vn 0.7115 0.6852 0.1557
vn 0.9633 0.2453 0.1092
vn 0.1272 0.9614 -0.2439
vn 0.1718 0.9835 0.0559
vn 0.4063 0.7414 -0.5340
vn 0.6843 0.1489 0.7138
vn 0.0553 0.3544 0.9335
vn 0.0068 0.3931 0.9195
vn 0.7458 -0.0575 0.6637
vn 0.0708 0.0666 0.9953
vn 0.9782 -0.2023 0.0475
vn 0.3537 0.6112 0.7081
vn 0.5499 0.0624 -0.8329
vn 0.4676 0.1115 -0.8769
vn -0.5880 -0.0888 -0.8040
vn 0.0123 0.3769 -0.9262
vn -0.7632 -0.1827 -0.6198
vn -0.9955 0.0823 -0.0473
vn -0.6620 0.0667 0.7466
vn -0.7271 0.0966 0.6797
s 1
f 27//1 3//2 14//3
f 25//4 15//5 24//6
f 23//7 20//8 9//9
f 19//10 18//11 8//12
f 3//2 19//10 15//5
f 19//10 8//12 15//5
f 27//1 18//11 3//2
f 21//13 5//14 13//15
f 16//16 13//15 1//17
f 4//18 21//13 16//16
f 17//19 5//14 20//8
f 22//20 4//18 7//21
f 24//6 23//7 22//20
f 15//5 23//7 24//6
f 10//22 24//6 11//23
f 14//3 6//24 2//25
f 14//3 25//4 10//22
f 3//2 25//4 14//3
f 27//1 14//3 26//26
f 26//26 2//25 12//27
f 13//15 12//27 1//17
f 5//14 26//26 13//15
f 17//19 27//1 5//14
f 10//22 25//4 24//6
f 25//4 3//2 15//5
f 23//7 8//12 20//8
f 18//11 27//1 17//19
f 8//12 18//11 17//19
f 8//12 17//19 20//8
f 19//10 3//2 18//11
f 16//16 21//13 13//15
f 4//18 9//9 21//13
f 9//9 20//8 21//13
f 20//8 5//14 21//13
f 22//20 23//7 9//9
f 22//20 9//9 4//18
f 11//23 24//6 7//21
f 7//21 24//6 22//20
f 15//5 8//12 23//7
f 6//24 10//22 11//23
f 14//3 10//22 6//24
f 26//26 14//3 2//25
f 13//15 26//26 12//27
f 5//14 27//1 26//26
