# Blender 4.0.2
# www.blender.org
o SM_Rock2
v -0.695477 -0.230648 0.975855 0.3451 0.4039 0.2863
v -0.633864 -0.184115 -0.911240 0.3921 0.4667 0.3294
v -0.252465 1.145251 -0.681113 0.5608 0.5725 0.5373
v 0.666688 -0.190543 0.883207 0.3804 0.4432 0.3255
v -0.381453 0.687665 0.613769 0.4235 0.4550 0.3961
v 0.039096 -0.090475 -0.648211 0.3216 0.3765 0.2706
v 0.563276 -0.149955 -0.310726 0.3176 0.3804 0.2706
v 0.452384 1.089145 0.045571 0.5608 0.5686 0.5412
v 0.693856 0.398574 0.929383 0.3921 0.4510 0.3333
v -0.119075 0.354689 -0.737230 0.4118 0.4667 0.3568
v 0.571988 -0.134313 -0.823257 0.3490 0.4196 0.2980
v -0.561471 -0.172339 0.005189 0.3019 0.3568 0.2549
v -0.691674 0.323186 0.929097 0.3686 0.4157 0.3216
v -0.645484 0.722554 -0.856096 0.4510 0.5059 0.4078
v 0.328793 0.870655 -0.478041 0.5333 0.5451 0.5059
v -0.010789 -0.152050 0.817466 0.3059 0.3608 0.2549
v -0.293001 1.170734 0.620679 0.4980 0.5137 0.4745
v -0.124903 1.272989 0.223065 0.5490 0.5569 0.5294
v 0.077186 1.273636 -0.014303 0.5686 0.5764 0.5490
v 0.360448 0.989282 0.646395 0.5294 0.5490 0.5059
v 0.028309 0.258372 0.857833 0.3333 0.3804 0.2902
v 0.833764 0.327214 0.176569 0.3372 0.3921 0.2863
v 0.624098 0.787208 0.065025 0.4275 0.4628 0.3882
v 0.276262 0.544758 -0.519184 0.4000 0.4628 0.3568
v -0.163422 0.813897 -0.876333 0.4902 0.5294 0.4510
v -0.511171 0.227797 -0.058264 0.3961 0.4471 0.3568
v -0.555443 1.187266 0.239419 0.5412 0.5530 0.5255
vn -0.7808 0.5981 0.1810
vn -0.0650 0.8310 -0.5524
vn -0.7105 0.1986 -0.6751
vn 0.2625 0.1677 -0.9502
vn 0.7245 0.3533 -0.5919
vn 0.7052 0.1518 -0.6925
vn 0.8982 0.3979 -0.1866
vn 0.3749 0.6852 0.6244
vn 0.5814 0.2453 0.7757
vn 0.2647 0.9614 -0.0747
vn 0.0771 0.9835 0.1634
vn 0.6673 0.7414 -0.0708
vn -0.0499 0.1489 0.9876
vn -0.6412 0.3544 0.6807
vn -0.6642 0.3931 0.6358
vn 0.0287 -0.0575 0.9979
vn -0.6755 0.0666 0.7343
vn 0.6365 -0.2023 0.7442
vn -0.2725 0.6112 0.7431
vn 0.9832 0.0624 -0.1714
vn 0.9588 0.1115 -0.2614
vn 0.1815 -0.0888 -0.9794
vn 0.6823 0.3769 -0.6265
vn -0.0727 -0.1827 -0.9805
vn -0.6486 0.0823 -0.7567
vn -0.9973 0.0667 0.0306
vn -0.9933 0.0966 -0.0627
s 1
f 27//1 3//2 14//3
f 25//4 15//5 24//6
f 23//7 20//8 9//9
f 19//10 18//11 8//12
f 3//2 19//10 15//5
f 19//10 8//12 15//5
f 27//1 18//11 3//2
f 21//13 5//14 13//15
f 16//16 13//15 1//17
f 4//18 21//13 16//16
f 17//19 5//14 20//8
f 22//20 4//18 7//21
f 24//6 23//7 22//20
f 15//5 23//7 24//6
f 10//22 24//6 11//23
f 14//3 6//24 2//25
f 14//3 25//4 10//22
f 3//2 25//4 14//3
f 27//1 14//3 26//26
f 26//26 2//25 12//27
f 13//15 12//27 1//17
f 5//14 26//26 13//15
f 17//19 27//1 5//14
f 10//22 25//4 24//6
f 25//4 3//2 15//5
f 23//7 8//12 20//8
f 18//11 27//1 17//19
f 8//12 18//11 17//19
f 8//12 17//19 20//8
f 19//10 3//2 18//11
f 16//16 21//13 13//15
f 4//18 9//9 21//13
f 9//9 20//8 21//13
f 20//8 5//14 21//13
f 22//20 23//7 9//9
f 22//20 9//9 4//18
f 11//23 24//6 7//21
f 7//21 24//6 22//20
f 15//5 8//12 23//7
f 6//24 10//22 11//23
f 14//3 10//22 6//24
f 26//26 14//3 2//25
f 13//15 26//26 12//27
f 5//14 27//1 26//26
