# Blender 4.0.2
# www.blender.org
o SM_Shroom0
v 0.182219 -0.041871 -0.115639 0.6315 0.6236 0.6157
v 0.138483 -0.063282 -0.185426 0.6315 0.6236 0.6157
v 0.056780 -0.043373 -0.172396 0.6471 0.6432 0.6276
v 0.050021 -0.009658 -0.094555 0.6315 0.6236 0.6157
v 0.127546 -0.008729 -0.059477 0.6315 0.6236 0.6157
v 0.253963 0.636286 -0.360224 0.6315 0.6236 0.6157
v 0.221025 0.626425 -0.413945 0.6315 0.6236 0.6157
v 0.158967 0.632044 -0.400327 0.5804 0.4667 0.4550
v 0.153553 0.645377 -0.338190 0.5804 0.4667 0.4550
v 0.212263 0.648000 -0.313405 0.6315 0.6236 0.6157
v 0.304023 0.637622 -0.357119 0.6745 0.6706 0.6432
v 0.236943 0.617540 -0.466520 0.6315 0.6236 0.6157
v 0.110564 0.628982 -0.438788 0.5882 0.4745 0.4589
v 0.099537 0.656137 -0.312246 0.5804 0.4667 0.4550
v 0.219101 0.661477 -0.261772 0.6315 0.6236 0.6157
v 0.265182 0.656506 -0.361404 0.6315 0.6236 0.6157
v 0.226048 0.644798 -0.425082 0.5804 0.4667 0.4550
v 0.152667 0.654717 -0.409583 0.5804 0.4667 0.4550
v 0.146448 0.672556 -0.336327 0.5804 0.4667 0.4550
v 0.215987 0.673662 -0.306550 0.5804 0.4667 0.4550
v 0.353152 0.978141 -0.535654 0.4863 0.5255 0.4589
v 0.321941 0.957898 -0.579946 0.5255 0.5608 0.4941
v 0.267605 0.976682 -0.573585 0.5255 0.5569 0.4902
v 0.265234 1.008535 -0.525361 0.5255 0.5608 0.4941
v 0.318106 1.009437 -0.501919 0.5804 0.6079 0.5373
v 0.801476 0.813983 -0.357664 0.5804 0.3137 0.2432
v 0.381675 0.579782 -0.803947 0.5804 0.3176 0.2510
v -0.153152 0.817457 -0.795596 0.5647 0.2745 0.2314
v -0.211596 1.129565 -0.261759 0.5647 0.3176 0.2432
v 0.362727 1.059562 -0.038902 0.5804 0.3059 0.2392
v 0.667009 0.904232 -0.444020 0.6745 0.2078 0.1686
v 0.417306 0.742273 -0.798375 0.6745 0.2078 0.1686
v -0.017406 0.892553 -0.747483 0.5961 0.2784 0.2314
v -0.036371 1.147391 -0.361676 0.6354 0.2784 0.1961
v 0.386620 1.154609 -0.174126 0.6039 0.2627 0.2000
v 0.391072 1.086891 -0.590528 0.6315 0.2784 0.1961
v 0.354328 1.063058 -0.642673 0.6039 0.2588 0.2000
v 0.290358 1.085173 -0.635184 0.6039 0.2510 0.2000
v 0.287567 1.122673 -0.578411 0.6039 0.2627 0.2000
v 0.349812 1.123735 -0.550812 0.6039 0.2667 0.2000
v 0.421132 1.008184 -0.532517 0.6510 0.2902 0.1922
v 0.354101 0.964707 -0.627642 0.5961 0.2510 0.2275
v 0.232314 1.073459 -0.510413 0.6039 0.2667 0.2000
v 0.345864 1.075396 -0.460066 0.6039 0.2667 0.2000
v 0.237405 1.005049 -0.613980 0.6039 0.2510 0.1961
v 0.070438 -0.032593 0.044806 0.6315 0.6236 0.6157
v 0.078668 -0.032593 -0.066328 0.6315 0.6236 0.6157
v -0.024484 -0.032593 -0.108497 0.6471 0.6432 0.6276
v -0.096464 -0.032593 -0.023425 0.6315 0.6236 0.6157
v -0.037799 -0.032593 0.071322 0.6315 0.6236 0.6157
v 0.022268 1.117153 0.072707 0.6315 0.6236 0.6157
v 0.028436 1.117153 -0.010590 0.6315 0.6236 0.6157
v -0.048877 1.117153 -0.042196 0.6315 0.6236 0.6157
v -0.102828 1.117153 0.021567 0.6315 0.6236 0.6157
v -0.058858 1.117153 0.092580 0.6315 0.6236 0.6157
v 0.073137 1.120864 0.114127 0.6745 0.6706 0.6432
v 0.085699 1.120864 -0.055506 0.6315 0.6236 0.6157
v -0.071750 1.120864 -0.119872 0.6432 0.6393 0.6236
v -0.181621 1.120864 0.009980 0.6315 0.6236 0.6157
v -0.092076 1.120864 0.154600 0.6315 0.6236 0.6157
v 0.031027 1.143993 0.083764 0.6315 0.6236 0.6157
v 0.038246 1.143963 -0.015044 0.6315 0.6236 0.6157
v -0.053393 1.148319 -0.052437 0.6315 0.6236 0.6157
v -0.117249 1.151041 0.023260 0.6315 0.6236 0.6157
v -0.065075 1.148368 0.107437 0.6315 0.6236 0.6157
v 0.051037 1.635800 0.023585 0.5255 0.5608 0.4941
v 0.055325 1.630646 -0.045336 0.5255 0.5608 0.4941
v -0.009067 1.630107 -0.070802 0.5255 0.5569 0.4902
v -0.053152 1.634927 -0.017620 0.4863 0.5255 0.4589
v -0.016006 1.638445 0.040715 0.5647 0.5921 0.5255
v 0.470931 1.502460 0.445492 0.5804 0.3137 0.2432
v 0.519957 1.443545 -0.342380 0.5804 0.3176 0.2510
v -0.216135 1.437374 -0.633492 0.5725 0.2549 0.2353
v -0.720091 1.492476 -0.025539 0.5764 0.3568 0.2627
v -0.295461 1.532701 0.641310 0.5608 0.2078 0.2275
v 0.339111 1.602550 0.300985 0.8000 0.1765 0.1098
v 0.373423 1.561317 -0.250417 0.8000 0.1765 0.1098
v -0.141740 1.556999 -0.454156 0.6471 0.2588 0.2432
v -0.494440 1.595562 -0.028672 0.6039 0.1765 0.1961
v -0.197258 1.623714 0.438031 0.6510 0.2078 0.1843
v 0.078631 1.748700 0.052176 0.6785 0.2471 0.1804
v 0.086237 1.739559 -0.070060 0.6745 0.2235 0.1804
v -0.027965 1.738602 -0.115225 0.6745 0.2118 0.1765
v -0.106152 1.747150 -0.020903 0.6745 0.2353 0.1843
v -0.040272 1.753391 0.082557 0.6745 0.2432 0.1843
v 0.125427 1.685827 0.106373 0.7843 0.3412 0.1647
v 0.137649 1.671140 -0.090031 0.7059 0.2471 0.2510
v -0.171476 1.683338 -0.011048 0.6745 0.2471 0.1843
v -0.065623 1.693365 0.155188 0.6745 0.2471 0.1843
v -0.045848 1.669602 -0.162601 0.7412 0.2510 0.1608
v 0.096505 -0.074597 0.130446 0.6315 0.6236 0.6157
v 0.102422 -0.058064 0.083893 0.6315 0.6236 0.6157
v 0.057387 -0.054279 0.063081 0.6471 0.6432 0.6276
v 0.023638 -0.068473 0.096772 0.6315 0.6236 0.6157
v 0.047814 -0.081030 0.138406 0.6315 0.6236 0.6157
v 0.046486 0.358397 0.235789 0.6315 0.6236 0.6157
v 0.051387 0.372093 0.197226 0.6315 0.6236 0.6157
v 0.014082 0.375228 0.179986 0.6315 0.6236 0.6157
v -0.013875 0.363470 0.207895 0.5804 0.4353 0.4510
v 0.006151 0.353068 0.242383 0.5843 0.4432 0.4589
v 0.070438 0.354710 0.257328 0.6745 0.6706 0.6432
v 0.080419 0.382600 0.178793 0.6315 0.6236 0.6157
v 0.004447 0.388986 0.143684 0.5882 0.4471 0.4589
v -0.052488 0.365041 0.200520 0.5804 0.4353 0.4510
v -0.011703 0.343857 0.270755 0.5804 0.4353 0.4510
v 0.049600 0.369314 0.245536 0.6315 0.6236 0.6157
v 0.055367 0.385543 0.199784 0.6315 0.6236 0.6157
v 0.010994 0.391275 0.180082 0.5804 0.4353 0.4510
v -0.022197 0.378587 0.213658 0.5804 0.4353 0.4510
v 0.001663 0.365015 0.254111 0.5804 0.4353 0.4510
v 0.032999 0.706698 0.406013 0.4745 0.5098 0.4471
v 0.036246 0.723911 0.374950 0.5804 0.6079 0.5373
v 0.003546 0.728794 0.361587 0.5608 0.5882 0.5216
v -0.019910 0.714599 0.384390 0.4863 0.5255 0.4589
v -0.001707 0.700942 0.411847 0.5255 0.5608 0.4941
v 0.249357 0.544218 0.565614 0.5804 0.3137 0.2432
v 0.286469 0.740989 0.210526 0.5804 0.3098 0.2510
v -0.087339 0.796807 0.057766 0.5647 0.2157 0.2275
v -0.355477 0.634532 0.318442 0.5647 0.2706 0.2392
v -0.147388 0.478424 0.632310 0.5451 0.1569 0.2157
v 0.178961 0.623702 0.526499 0.7764 0.1686 0.1255
v 0.204934 0.761415 0.277986 0.7529 0.1608 0.1333
v -0.056680 0.800480 0.171075 0.6118 0.2078 0.2314
v -0.244340 0.686910 0.353513 0.6039 0.1765 0.1961
v -0.098706 0.577655 0.573177 0.6039 0.1647 0.1922
v 0.041741 0.748221 0.450718 0.6745 0.2432 0.1843
v 0.047499 0.778750 0.395627 0.6706 0.2196 0.1804
v -0.010497 0.787410 0.371927 0.6628 0.2039 0.1804
v -0.052097 0.762233 0.412370 0.6706 0.2353 0.1843
v -0.019813 0.738014 0.461065 0.6706 0.2392 0.1843
v 0.067926 0.707408 0.458250 0.6745 0.2471 0.1843
v 0.077178 0.756460 0.369732 0.6471 0.2000 0.2353
v -0.082850 0.729921 0.396633 0.6510 0.2196 0.1882
v -0.030977 0.691006 0.474876 0.6393 0.2157 0.1882
v -0.016007 0.770374 0.331651 0.6393 0.1804 0.1843
v 0.121285 1.130325 -0.364858 0.8784 0.8509 0.8431
v 0.219955 1.132063 -0.320923 0.8784 0.8509 0.8431
v 0.173721 1.110558 -0.412097 0.8784 0.8509 0.8431
v 0.493983 0.894308 -0.592990 0.8784 0.8509 0.8431
v 0.577397 0.878680 -0.543553 0.8784 0.8509 0.8431
v 0.520305 0.840323 -0.625884 0.8784 0.8509 0.8431
v 0.273550 1.631876 -0.047935 0.8784 0.8509 0.8431
v 0.318742 1.614116 -0.009879 0.8784 0.8509 0.8431
v 0.319653 1.610425 -0.078815 0.8784 0.8509 0.8431
v -0.259405 1.651925 -0.081410 0.8784 0.8509 0.8431
v -0.198334 1.672246 -0.065759 0.8784 0.8509 0.8431
v -0.203664 1.652702 -0.125916 0.8784 0.8509 0.8431
v -0.020461 1.649606 0.291372 0.8784 0.8509 0.8431
v 0.070847 1.638286 0.293739 0.8784 0.8509 0.8431
v 0.017982 1.655182 0.257932 0.8784 0.8509 0.8431
v -0.000437 0.781230 0.269433 0.8784 0.8509 0.8431
v 0.073545 0.774462 0.274033 0.8784 0.8509 0.8431
v 0.030726 0.783639 0.239868 0.8784 0.8509 0.8431
v -0.166502 0.671296 0.426857 0.8784 0.8509 0.8431
v -0.137407 0.647223 0.473485 0.8784 0.8509 0.8431
v -0.136864 0.665505 0.451481 0.8784 0.8509 0.8431
vn 0.9929 -0.0711 0.0953
vn 0.1243 -0.6853 0.7176
vn 0.2432 0.3218 0.9150
vn -0.7281 -0.1166 -0.6754
vn -0.5459 -0.7081 0.4478
vn -0.4145 -0.8907 -0.1867
vn 0.3966 -0.3314 -0.8561
vn 0.4812 -0.8532 0.2010
vn -0.8524 0.2953 0.4316
vn 0.1586 -0.9536 -0.2560
vn 0.3657 -0.3228 -0.8729
vn 0.9816 -0.1683 0.0903
vn 0.1977 0.0332 0.9797
vn -0.8713 -0.0056 0.4908
vn -0.7591 -0.2227 -0.6116
vn -0.5287 0.6339 -0.5645
vn 0.3620 0.4094 -0.8374
vn 0.8017 0.5976 -0.0053
vn -0.5010 0.8446 0.1886
vn 0.1957 0.8379 0.5095
vn -0.5130 -0.6457 0.5656
vn -0.5567 -0.7729 0.3046
vn -0.1337 -0.9404 0.3127
vn -0.1762 -0.7038 0.6882
vn 0.0654 -0.8194 0.5695
vn 0.0709 -0.1317 0.9888
vn -0.7667 -0.3771 -0.5195
vn 0.0652 -0.9264 -0.3708
vn 0.8882 -0.3300 0.3196
vn -0.8609 0.1768 0.4771
vn -0.1232 0.9687 -0.2153
vn -0.0422 0.6402 -0.7671
vn 0.4547 0.2011 -0.8676
vn 0.6536 0.6408 -0.4028
vn 0.3517 0.8975 0.2661
vn 0.3769 0.4014 -0.8348
vn 0.7783 0.5347 -0.3292
vn 0.6847 0.6230 -0.3782
vn -0.2086 0.9392 -0.2729
vn 0.3296 0.9387 0.1007
vn -0.3534 0.9159 -0.1906
vn -0.1996 0.5998 -0.7748
vn 0.3749 0.2588 -0.8902
vn 0.3323 0.9420 -0.0470
vn -0.3272 0.4948 -0.8051
vn -0.3748 -0.0240 0.9268
vn 0.4079 -0.8402 0.3573
vn -0.1971 -0.8503 0.4880
vn -0.9961 -0.0020 -0.0886
vn -0.1353 -0.8366 -0.5309
vn -0.2255 0.0513 -0.9729
vn 0.7741 0.0171 0.6328
vn 0.4767 -0.8312 -0.2860
vn -0.5287 -0.8483 -0.0295
vn 0.8451 0.0627 -0.5310
vn 0.8356 -0.1199 -0.5360
vn 0.7752 -0.1406 0.6159
vn -0.3917 -0.1608 0.9059
vn -0.9834 -0.1443 -0.1103
vn -0.2423 -0.1246 -0.9622
vn -0.1812 0.6857 -0.7050
vn 0.6521 0.6779 -0.3394
vn 0.5483 0.6858 0.4786
vn -0.7201 0.6936 -0.0209
vn -0.2400 0.6878 0.6851
vn -0.1579 -0.8941 0.4190
vn -0.4087 -0.9116 0.0445
vn -0.1107 -0.9558 -0.2724
vn 0.2510 -0.9626 -0.1019
vn 0.2361 -0.9284 0.2868
vn 0.7151 -0.2562 0.6504
vn -0.3792 -0.1859 0.9065
vn -0.2737 -0.3393 -0.9000
vn 0.7941 -0.3562 -0.4926
vn -0.9709 -0.2375 -0.0320
vn -0.3652 0.9255 -0.1008
vn -0.0629 0.8775 -0.4754
vn 0.3994 0.8659 -0.3010
vn -0.1130 0.9453 0.3060
vn 0.3687 0.9089 0.1949
vn 0.4178 0.8571 -0.3015
vn 0.4080 0.8843 0.2269
vn 0.3592 0.9079 0.2161
vn -0.4134 0.9066 -0.0851
vn -0.1628 0.9147 0.3699
vn -0.4860 0.8649 -0.1258
vn -0.0911 0.8546 -0.5113
vn 0.4502 0.8142 -0.3666
vn -0.1264 0.9353 0.3306
vn -0.1073 0.8019 -0.5878
vn -0.4037 -0.2496 0.8802
vn 0.4803 -0.8710 0.1031
vn -0.1841 -0.9615 0.2039
vn -0.1827 0.2410 -0.9532
vn -0.4546 -0.8149 -0.3595
vn -0.0365 -0.6583 -0.7519
vn 0.8860 0.2136 -0.4116
vn 0.7115 -0.0874 0.6972
vn -0.9918 -0.0567 -0.1144
vn 0.5191 -0.6784 -0.5199
vn 0.8656 0.1073 -0.4892
vn 0.7544 -0.2947 0.5865
vn -0.4200 -0.4705 0.7761
vn -0.9645 -0.1512 -0.2163
vn -0.1889 0.1867 -0.9641
vn -0.1745 0.9056 -0.3866
vn 0.5698 0.8203 -0.0503
vn 0.5296 0.4740 0.7035
vn -0.7710 0.6251 0.1222
vn -0.3545 0.3152 0.8803
vn -0.3126 -0.8152 -0.4876
vn -0.0191 -0.6725 -0.7399
vn 0.3274 -0.7371 -0.5912
vn -0.0932 -0.9848 -0.1467
vn 0.3119 -0.9180 -0.2448
vn 0.7196 -0.5247 0.4549
vn -0.3822 -0.6716 0.6347
vn -0.2223 0.1888 -0.9565
vn 0.8332 0.0180 -0.5527
vn -0.9454 -0.2405 -0.2199
vn -0.4422 0.8072 0.3910
vn -0.1283 0.9892 0.0710
vn 0.3292 0.9128 0.2418
vn -0.2020 0.6180 0.7598
vn 0.2834 0.6772 0.6790
vn 0.3483 0.9067 0.2379
vn 0.3239 0.6416 0.6953
vn 0.2736 0.6643 0.6956
vn -0.4888 0.7800 0.3907
vn -0.2505 0.5545 0.7936
vn -0.5566 0.7628 0.3292
vn -0.1536 0.9878 0.0266
vn 0.3857 0.9082 0.1622
vn -0.2151 0.5954 0.7741
vn -0.1633 0.9843 -0.0671
vn 0.1077 0.9540 -0.2796
vn 0.4841 0.6152 -0.6223
vn 0.3972 0.9167 -0.0438
vn -0.2374 0.9299 -0.2811
vn 0.1106 0.9519 0.2859
vn 0.0797 0.9832 0.1641
vn -0.3513 0.7244 0.5932
s 1
f 1//1 10//2 5//3
f 3//4 9//5 8//6
f 2//7 6//8 1//1
f 5//3 9//5 4//9
f 2//7 8//6 7//10
f 8//6 12//11 7//10
f 10//2 11//12 15//13
f 8//6 14//14 13//15
f 7//10 11//12 6//8
f 9//5 15//13 14//14
f 14//14 18//16 13//15
f 11//12 17//17 16//18
f 15//13 19//19 14//14
f 12//11 18//16 17//17
f 11//12 20//20 15//13
f 20//20 24//21 19//19
f 17//17 23//22 22//23
f 16//18 25//24 20//20
f 18//16 24//21 23//22
f 17//17 21//25 16//18
f 21//25 30//26 25//24
f 24//21 28//27 23//22
f 21//25 27//28 26//29
f 24//21 30//26 29//30
f 23//22 27//28 22//23
f 30//26 34//31 29//30
f 27//28 33//32 32//33
f 30//26 31//34 35//35
f 28//27 34//31 33//32
f 27//28 31//34 26//29
f 42//36 36//37 41//38
f 43//39 40//40 39//41
f 45//42 37//43 42//36
f 41//38 40//40 44//44
f 45//42 39//41 38//45
f 38//45 40//40 36//37
f 33//32 43//39 45//42
f 31//34 44//44 35//35
f 32//33 45//42 42//36
f 35//35 43//39 34//31
f 31//34 42//36 41//38
f 50//46 51//47 55//48
f 49//49 53//50 48//51
f 46//52 52//53 51//47
f 50//46 54//54 49//49
f 48//51 52//53 47//55
f 53//50 57//56 52//53
f 55//48 56//57 60//58
f 53//50 59//59 58//60
f 52//53 56//57 51//47
f 54//54 60//58 59//59
f 59//59 63//61 58//60
f 56//57 62//62 61//63
f 60//58 64//64 59//59
f 57//56 63//61 62//62
f 56//57 65//65 60//58
f 64//64 70//66 69//67
f 62//62 68//68 67//69
f 61//63 70//66 65//65
f 63//61 69//67 68//68
f 62//62 66//70 61//63
f 70//66 71//71 75//72
f 69//67 73//73 68//68
f 66//70 72//74 71//71
f 69//67 75//72 74//75
f 68//68 72//74 67//69
f 75//72 79//76 74//75
f 72//74 78//77 77//78
f 71//71 80//79 75//72
f 73//73 79//76 78//77
f 72//74 76//80 71//71
f 87//81 81//82 86//83
f 88//84 85//85 84//86
f 90//87 82//88 87//81
f 86//83 85//85 89//89
f 90//87 84//86 83//90
f 84//86 85//85 81//82
f 78//77 88//84 90//87
f 76//80 89//89 80//79
f 77//78 90//87 87//81
f 80//79 88//84 79//76
f 76//80 87//81 86//83
f 95//91 96//92 100//93
f 93//94 99//95 98//96
f 92//97 96//92 91//98
f 94//99 100//93 99//95
f 93//94 97//100 92//97
f 98//96 102//101 97//100
f 100//93 101//102 105//103
f 98//96 104//104 103//105
f 97//100 101//102 96//92
f 99//95 105//103 104//104
f 104//104 108//106 103//105
f 101//102 107//107 106//108
f 105//103 109//109 104//104
f 102//101 108//106 107//107
f 101//102 110//110 105//103
f 110//110 114//111 109//109
f 107//107 113//112 112//113
f 106//108 115//114 110//110
f 109//109 113//112 108//106
f 106//108 112//113 111//115
f 115//114 116//116 120//117
f 114//111 118//118 113//112
f 111//115 117//119 116//116
f 114//111 120//117 119//120
f 113//112 117//119 112//113
f 120//117 124//121 119//120
f 117//119 123//122 122//123
f 116//116 125//124 120//117
f 118//118 124//121 123//122
f 117//119 121//125 116//116
f 132//126 126//127 131//128
f 133//129 130//130 129//131
f 135//132 127//133 132//126
f 131//128 130//130 134//134
f 135//132 129//131 128//135
f 128//135 130//130 126//127
f 123//122 133//129 135//132
f 121//125 134//134 125//124
f 122//123 135//132 132//126
f 125//124 133//129 124//121
f 121//125 132//126 131//128
f 1//1 6//8 10//2
f 3//4 4//9 9//5
f 2//7 7//10 6//8
f 5//3 10//2 9//5
f 2//7 3//4 8//6
f 8//6 13//15 12//11
f 10//2 6//8 11//12
f 8//6 9//5 14//14
f 7//10 12//11 11//12
f 9//5 10//2 15//13
f 14//14 19//19 18//16
f 11//12 12//11 17//17
f 15//13 20//20 19//19
f 12//11 13//15 18//16
f 11//12 16//18 20//20
f 20//20 25//24 24//21
f 17//17 18//16 23//22
f 16//18 21//25 25//24
f 18//16 19//19 24//21
f 17//17 22//23 21//25
f 21//25 26//29 30//26
f 24//21 29//30 28//27
f 21//25 22//23 27//28
f 24//21 25//24 30//26
f 23//22 28//27 27//28
f 30//26 35//35 34//31
f 27//28 28//27 33//32
f 30//26 26//29 31//34
f 28//27 29//30 34//31
f 27//28 32//33 31//34
f 42//36 37//43 36//37
f 43//39 44//44 40//40
f 45//42 38//45 37//43
f 41//38 36//37 40//40
f 45//42 43//39 39//41
f 36//37 37//43 38//45
f 38//45 39//41 40//40
f 33//32 34//31 43//39
f 31//34 41//38 44//44
f 32//33 33//32 45//42
f 35//35 44//44 43//39
f 31//34 32//33 42//36
f 50//46 46//52 51//47
f 49//49 54//54 53//50
f 46//52 47//55 52//53
f 50//46 55//48 54//54
f 48//51 53//50 52//53
f 53//50 58//60 57//56
f 55//48 51//47 56//57
f 53//50 54//54 59//59
f 52//53 57//56 56//57
f 54//54 55//48 60//58
f 59//59 64//64 63//61
f 56//57 57//56 62//62
f 60//58 65//65 64//64
f 57//56 58//60 63//61
f 56//57 61//63 65//65
f 64//64 65//65 70//66
f 62//62 63//61 68//68
f 61//63 66//70 70//66
f 63//61 64//64 69//67
f 62//62 67//69 66//70
f 70//66 66//70 71//71
f 69//67 74//75 73//73
f 66//70 67//69 72//74
f 69//67 70//66 75//72
f 68//68 73//73 72//74
f 75//72 80//79 79//76
f 72//74 73//73 78//77
f 71//71 76//80 80//79
f 73//73 74//75 79//76
f 72//74 77//78 76//80
f 87//81 82//88 81//82
f 88//84 89//89 85//85
f 90//87 83//90 82//88
f 86//83 81//82 85//85
f 90//87 88//84 84//86
f 81//82 82//88 83//90
f 83//90 84//86 81//82
f 78//77 79//76 88//84
f 76//80 86//83 89//89
f 77//78 78//77 90//87
f 80//79 89//89 88//84
f 76//80 77//78 87//81
f 95//91 91//98 96//92
f 93//94 94//99 99//95
f 92//97 97//100 96//92
f 94//99 95//91 100//93
f 93//94 98//96 97//100
f 98//96 103//105 102//101
f 100//93 96//92 101//102
f 98//96 99//95 104//104
f 97//100 102//101 101//102
f 99//95 100//93 105//103
f 104//104 109//109 108//106
f 101//102 102//101 107//107
f 105//103 110//110 109//109
f 102//101 103//105 108//106
f 101//102 106//108 110//110
f 110//110 115//114 114//111
f 107//107 108//106 113//112
f 106//108 111//115 115//114
f 109//109 114//111 113//112
f 106//108 107//107 112//113
f 115//114 111//115 116//116
f 114//111 119//120 118//118
f 111//115 112//113 117//119
f 114//111 115//114 120//117
f 113//112 118//118 117//119
f 120//117 125//124 124//121
f 117//119 118//118 123//122
f 116//116 121//125 125//124
f 118//118 119//120 124//121
f 117//119 122//123 121//125
f 132//126 127//133 126//127
f 133//129 134//134 130//130
f 135//132 128//135 127//133
f 131//128 126//127 130//130
f 135//132 133//129 129//131
f 126//127 127//133 128//135
f 128//135 129//131 130//130
f 123//122 124//121 133//129
f 121//125 131//128 134//134
f 122//123 123//122 135//132
f 125//124 134//134 133//129
f 121//125 122//123 132//126
s 0
f 137//136 138//136 136//136
f 140//137 141//137 139//137
f 143//138 144//138 142//138
f 146//139 147//139 145//139
f 149//140 150//140 148//140
f 152//141 153//141 151//141
f 155//142 156//142 154//142
