# Blender 4.0.2
# www.blender.org
o SM_Shroom1
v -0.146211 0.038080 0.133300 0.4000 0.3686 0.3059
v -0.077951 0.060392 0.175527 0.3255 0.6706 0.8666
v -0.219922 0.016868 0.264331 0.3412 0.6276 0.7921
v -0.343598 0.039838 0.111624 0.3372 0.6354 0.8117
v -0.220038 0.058236 -0.033584 0.3686 0.5255 0.6197
v -0.085516 0.077136 0.037347 0.3255 0.6706 0.8666
v -0.145370 0.197091 0.273434 0.4196 0.8706 0.5255
v -0.312944 0.192950 0.206882 0.3765 0.8196 0.6157
v -0.337165 0.183332 0.022783 0.3176 0.5647 0.8666
v -0.220394 0.184746 -0.015458 0.4000 0.6471 0.8549
v -0.118228 0.203192 0.153123 0.3490 0.7647 0.6785
v -0.247381 0.247339 0.137582 0.3255 0.6824 0.8588
v -0.198898 0.028166 0.152040 0.4000 0.3686 0.3059
v -0.233377 0.025692 0.106981 0.4000 0.3686 0.3059
v -0.202000 0.034078 0.060392 0.4000 0.3686 0.3059
v -0.148129 0.041734 0.076659 0.4000 0.3686 0.3059
v -0.119409 -0.037594 0.136667 0.4000 0.3686 0.3059
v -0.189038 -0.050697 0.161434 0.4000 0.3686 0.3059
v -0.234607 -0.053966 0.101883 0.4000 0.3686 0.3059
v -0.193138 -0.042883 0.040312 0.4000 0.3686 0.3059
v -0.121942 -0.032765 0.061810 0.4000 0.3686 0.3059
v 0.068119 0.148432 0.069487 0.4000 0.3686 0.3059
v 0.239406 0.182463 0.174673 0.3255 0.6706 0.8666
v -0.081692 0.315336 0.363254 0.3255 0.6745 0.8706
v -0.403128 0.277337 -0.003178 0.3372 0.6354 0.8117
v -0.092715 0.197875 -0.347087 0.3686 0.5255 0.6197
v 0.227855 0.266943 -0.162535 0.3255 0.6706 0.8666
v 0.125590 0.554863 0.386532 0.3333 0.6941 0.7490
v -0.276826 0.599573 0.210913 0.3804 0.8313 0.5921
v -0.328805 0.554863 -0.238888 0.3176 0.5647 0.8666
v 0.125590 0.554863 -0.386532 0.4000 0.6471 0.8549
v 0.370100 0.587565 0.030445 0.3529 0.7725 0.6510
v 0.000000 0.806049 0.000000 0.3725 0.8706 0.4902
v -0.064053 0.148432 0.112433 0.4000 0.3686 0.3059
v -0.192638 0.193945 0.016485 0.4000 0.3686 0.3059
v -0.064053 0.148432 -0.112433 0.4000 0.3686 0.3059
v 0.068119 0.148432 -0.069487 0.4000 0.3686 0.3059
v 0.102508 -0.043870 0.091834 0.4000 0.3686 0.3059
v -0.072171 -0.043870 0.148591 0.4000 0.3686 0.3059
v -0.180131 -0.043870 0.000000 0.4000 0.3686 0.3059
v -0.072171 -0.043870 -0.148591 0.4000 0.3686 0.3059
v 0.102508 -0.043870 -0.091834 0.4000 0.3686 0.3059
v 0.258539 0.051232 -0.140526 0.4000 0.3686 0.3059
v 0.312183 0.067844 -0.202063 0.3255 0.6706 0.8666
v 0.377470 0.088583 -0.045929 0.3412 0.6276 0.7921
v 0.201745 0.071636 0.048664 0.3372 0.6354 0.8117
v 0.080969 0.074314 -0.099987 0.3686 0.5255 0.6197
v 0.174777 0.081803 -0.220936 0.3255 0.6706 0.8666
v 0.368909 0.208776 -0.121884 0.4157 0.8666 0.5333
v 0.299881 0.223362 0.020286 0.3961 0.8470 0.5608
v 0.142249 0.149626 0.003738 0.3176 0.5647 0.8666
v 0.111170 0.164324 -0.188456 0.4000 0.6471 0.8549
v 0.295227 0.176936 -0.260300 0.3529 0.7725 0.6510
v 0.262580 0.256593 -0.106712 0.3725 0.8706 0.4902
v 0.267579 0.046957 -0.084621 0.4000 0.3686 0.3059
v 0.217077 0.046728 -0.058644 0.4000 0.3686 0.3059
v 0.176825 0.050861 -0.098494 0.4000 0.3686 0.3059
v 0.202450 0.053645 -0.149100 0.4000 0.3686 0.3059
v 0.267198 -0.026583 -0.158588 0.4000 0.3686 0.3059
v 0.279146 -0.032233 -0.084704 0.4000 0.3686 0.3059
v 0.212402 -0.032536 -0.050372 0.4000 0.3686 0.3059
v 0.159205 -0.027073 -0.103039 0.4000 0.3686 0.3059
v 0.193072 -0.023393 -0.169919 0.4000 0.3686 0.3059
vn 0.8567 -0.4551 0.2426
vn -0.0932 -0.8508 0.5172
vn 0.6879 -0.6483 0.3263
vn -0.7908 -0.6118 -0.0159
vn -0.1057 -0.6966 0.7096
vn 0.8252 -0.2504 -0.5063
vn -0.1290 -0.6913 -0.7110
vn -0.0267 -0.5136 -0.8576
vn 0.6705 -0.5390 -0.5098
vn -0.6130 -0.7899 -0.0187
vn 0.7146 0.6972 -0.0561
vn 0.3716 0.4913 0.7877
vn -0.7119 0.4372 0.5496
vn -0.7547 0.4102 -0.5120
vn 0.1518 0.5892 -0.7936
vn -0.1157 0.9933 0.0055
vn 0.7298 0.3710 -0.5743
vn -0.9993 0.0132 0.0347
vn -0.2925 0.0770 0.9531
vn -0.3557 0.1974 -0.9135
vn 0.7684 0.2974 0.5667
vn 0.6220 -0.6868 0.3761
vn -0.2945 -0.5072 0.8099
vn 0.5425 -0.7339 0.4087
vn -0.8960 -0.4393 0.0653
vn -0.2613 -0.3947 0.8809
vn 0.7194 -0.5334 -0.4449
vn -0.2464 -0.6305 -0.7361
vn -0.1416 -0.6445 -0.7514
vn 0.6196 -0.5196 -0.5883
vn -0.6052 -0.7961 0.0052
vn 0.9277 0.3719 0.0320
vn 0.3164 0.3442 0.8840
vn -0.6876 0.4924 0.5336
vn -0.7340 0.3993 -0.5494
vn 0.3559 0.3334 -0.8730
vn -0.0026 1.0000 -0.0095
vn 0.7934 0.2083 0.5720
vn 0.7934 0.2083 -0.5720
vn -0.9964 0.0842 -0.0054
vn -0.2979 0.1885 0.9358
vn -0.2979 0.1885 -0.9358
vn 0.5019 -0.6780 -0.5371
vn 0.6520 -0.6816 0.3322
vn 0.4491 -0.7038 -0.5504
vn -0.1499 -0.5021 0.8517
vn 0.8391 -0.4457 0.3117
vn -0.3421 -0.5617 -0.7533
vn -0.7177 -0.6930 0.0689
vn -0.8953 -0.4441 0.0350
vn -0.3773 -0.6142 -0.6931
vn -0.1230 -0.7267 0.6758
vn 0.3076 0.3153 -0.8978
vn 0.8478 0.5053 -0.1611
vn 0.2834 0.6241 0.7282
vn -0.6875 0.3995 0.6064
vn -0.7655 0.4263 -0.4819
vn -0.0828 0.9949 -0.0579
vn -0.4364 0.2839 -0.8538
vn -0.1455 0.1112 0.9831
vn 0.8845 0.1287 0.4484
vn -0.9639 0.2083 0.1658
vn 0.6934 0.2352 -0.6811
s 1
f 2//1 13//2 1//3
f 4//4 13//2 3//5
f 6//6 15//7 5//8
f 6//6 1//3 16//9
f 5//8 14//10 4//4
f 2//1 6//6 11//11
f 3//5 2//1 7//12
f 4//4 3//5 8//13
f 5//8 4//4 9//14
f 6//6 5//8 10//15
f 2//1 11//11 7//12
f 3//5 7//12 8//13
f 4//4 8//13 9//14
f 5//8 9//14 10//15
f 6//6 10//15 11//11
f 7//12 11//11 12//16
f 8//13 7//12 12//16
f 9//14 8//13 12//16
f 10//15 9//14 12//16
f 11//11 10//15 12//16
f 1//3 21//17 16//9
f 15//7 19//18 14//10
f 13//2 19//18 18//19
f 16//9 20//20 15//7
f 1//3 18//19 17//21
f 23//22 34//23 22//24
f 25//25 34//23 24//26
f 27//27 36//28 26//29
f 23//22 37//30 27//27
f 26//29 35//31 25//25
f 23//22 27//27 32//32
f 24//26 23//22 28//33
f 25//25 24//26 29//34
f 26//29 25//25 30//35
f 27//27 26//29 31//36
f 23//22 32//32 28//33
f 24//26 28//33 29//34
f 25//25 29//34 30//35
f 26//29 30//35 31//36
f 27//27 31//36 32//32
f 28//33 32//32 33//37
f 29//34 28//33 33//37
f 30//35 29//34 33//37
f 31//36 30//35 33//37
f 32//32 31//36 33//37
f 37//30 38//38 42//39
f 36//28 40//40 35//31
f 34//23 40//40 39//41
f 37//30 41//42 36//28
f 22//24 39//41 38//38
f 44//43 55//44 43//45
f 46//46 55//44 45//47
f 48//48 57//49 47//50
f 48//48 43//45 58//51
f 47//50 56//52 46//46
f 44//43 48//48 53//53
f 45//47 44//43 49//54
f 46//46 45//47 50//55
f 47//50 46//46 51//56
f 48//48 47//50 52//57
f 44//43 53//53 49//54
f 45//47 49//54 50//55
f 46//46 50//55 51//56
f 47//50 51//56 52//57
f 48//48 52//57 53//53
f 49//54 53//53 54//58
f 50//55 49//54 54//58
f 51//56 50//55 54//58
f 52//57 51//56 54//58
f 53//53 52//57 54//58
f 43//45 63//59 58//51
f 57//49 61//60 56//52
f 55//44 61//60 60//61
f 58//51 62//62 57//49
f 43//45 60//61 59//63
f 2//1 3//5 13//2
f 4//4 14//10 13//2
f 6//6 16//9 15//7
f 6//6 2//1 1//3
f 5//8 15//7 14//10
f 1//3 17//21 21//17
f 15//7 20//20 19//18
f 13//2 14//10 19//18
f 16//9 21//17 20//20
f 1//3 13//2 18//19
f 23//22 24//26 34//23
f 25//25 35//31 34//23
f 27//27 37//30 36//28
f 23//22 22//24 37//30
f 26//29 36//28 35//31
f 37//30 22//24 38//38
f 36//28 41//42 40//40
f 34//23 35//31 40//40
f 37//30 42//39 41//42
f 22//24 34//23 39//41
f 44//43 45//47 55//44
f 46//46 56//52 55//44
f 48//48 58//51 57//49
f 48//48 44//43 43//45
f 47//50 57//49 56//52
f 43//45 59//63 63//59
f 57//49 62//62 61//60
f 55//44 56//52 61//60
f 58//51 63//59 62//62
f 43//45 55//44 60//61
