# Blender 4.0.2
# www.blender.org
o SM_Tree1
v -2.989417 1.774294 2.498249 0.1373 0.1922 0.1373
v -3.308556 1.774294 -1.895199 0.1608 0.2235 0.1608
v -1.051235 5.834584 0.018245 0.0392 0.0549 0.0392
v -0.446578 5.834584 1.910530 0.1451 0.2039 0.1451
v -1.359898 8.681188 -0.682909 0.0863 0.1373 0.1098
v -0.354102 13.391647 -0.205075 0.2392 0.3451 0.2902
v -0.230408 13.280766 0.226610 0.2078 0.2980 0.2510
v 1.252954 1.774294 3.566294 0.1059 0.1451 0.1020
v 1.553011 5.834584 1.930246 0.1412 0.1961 0.1412
v -0.939509 8.681188 0.655683 0.0706 0.0980 0.0667
v -0.571480 14.518186 0.546923 0.2549 0.3686 0.3098
v 2.181335 5.834584 0.007664 0.0471 0.0784 0.0549
v 0.479653 8.681188 0.658111 0.0588 0.0941 0.0745
v 0.855388 9.089427 -0.662955 0.0863 0.1373 0.1059
v 0.226888 13.691714 0.276285 0.2118 0.3019 0.2432
v 0.373658 13.580833 -0.148109 0.2196 0.3216 0.2627
v 3.604074 1.774294 -0.280938 0.1412 0.2000 0.1451
v 0.681956 1.774294 -3.577219 0.1412 0.1961 0.1412
v 0.525162 5.834584 -1.156808 0.0353 0.0627 0.0431
v -0.256224 9.089427 -1.444541 0.0980 0.1490 0.1137
v -0.008275 13.280766 -0.474560 0.2353 0.3412 0.2863
v 3.211118 4.874819 -1.559799 0.0941 0.1373 0.1059
v -0.570361 4.874819 -2.442155 0.1530 0.2118 0.1530
v -2.543226 4.777251 0.777364 0.1569 0.2157 0.1569
v -0.100204 4.777251 3.722832 0.1333 0.1804 0.1294
v 3.486506 4.777251 2.313357 0.1098 0.1530 0.1098
v -2.114974 7.694854 -1.797160 0.1059 0.1608 0.1255
v 2.014039 8.397857 -0.088829 0.1333 0.1882 0.1412
v 0.302777 7.694854 2.089314 0.1373 0.1922 0.1412
v 0.521684 8.397857 -2.398678 0.1216 0.1765 0.1373
v -2.346506 7.640210 1.018477 0.1137 0.1451 0.1020
v -0.555760 11.436454 -0.048230 0.1176 0.1804 0.1490
v 0.707243 11.436454 0.872490 0.1255 0.1882 0.1490
v 0.990003 11.510865 -0.042763 0.1373 0.2078 0.1686
v 0.201364 11.510865 -0.597264 0.1255 0.1961 0.1608
v -0.274287 11.340968 0.880595 0.1059 0.1647 0.1333
v -1.212784 10.821743 0.091429 0.1333 0.2039 0.1686
v 1.383974 10.821743 1.228602 0.1294 0.1882 0.1530
v 1.534593 10.888122 -0.507398 0.1216 0.1804 0.1412
v -0.088442 10.888122 -1.185305 0.1412 0.2118 0.1725
v -0.352918 10.616749 1.630211 0.1216 0.1882 0.1530
v 0.567023 0.491156 0.081422 0.1059 0.1451 0.0941
v -0.381195 0.376057 0.656799 0.1020 0.1373 0.0980
v -0.411968 0.486228 -0.452408 0.1333 0.1294 0.0745
v -0.145383 5.346246 -0.211887 0.1333 0.1294 0.0667
v -0.135200 5.309789 0.155163 0.1176 0.1098 0.0510
v 0.178577 5.347877 -0.035237 0.1333 0.1412 0.0431
v 2.211102 -0.212352 -0.022636 0.1137 0.1882 0.1412
v -2.335173 -0.212352 3.169005 0.0980 0.1725 0.1216
v -2.505721 -0.212352 -2.978186 0.0980 0.1765 0.1294
vn -0.7082 0.5541 -0.4374
vn 0.1075 0.5113 -0.8526
vn 0.1707 0.5094 -0.8434
vn -0.3169 0.2395 -0.9177
vn -0.8841 0.2746 -0.3782
vn 0.0707 0.2248 -0.9718
vn -0.9490 0.3149 -0.0181
vn -0.0856 0.3780 -0.9219
vn -0.2188 0.2846 -0.9333
vn -0.8555 0.2309 -0.4636
vn -0.4317 0.8030 0.4108
vn -0.7048 0.4675 0.5336
vn -0.7652 0.6054 -0.2189
vn -0.9526 0.2679 0.1443
vn -0.5906 0.5168 0.6198
vn -0.6400 0.1113 0.7603
vn 0.3281 0.2847 0.9007
vn -0.4566 0.4820 0.7478
vn -0.1528 0.5489 0.8218
vn 0.5164 0.6220 0.5886
vn 0.5912 0.4978 0.6345
vn -0.3288 0.4520 0.8292
vn 0.5898 0.4386 0.6781
vn 0.9305 0.3366 -0.1447
vn 0.5805 0.3378 0.7409
vn 0.6803 0.5611 -0.4716
vn 0.6333 0.6595 0.4050
vn 0.6693 0.6128 -0.4201
vn 0.8221 0.4034 -0.4018
vn 0.8111 0.3945 -0.4318
vn 0.9520 0.3005 0.0590
vn 0.0486 0.4118 -0.9100
vn 0.8887 0.2975 -0.3489
vn 0.5848 0.3073 0.7507
vn 0.1269 0.2422 0.9619
vn -0.4784 0.4179 0.7723
vn -0.7987 0.4076 0.4426
vn -0.8018 0.5188 -0.2967
vn -0.7145 0.5177 -0.4705
vn 0.1592 0.5407 -0.8260
vn -0.2134 0.8672 -0.4500
vn -0.4764 0.1124 0.8720
vn -0.4632 0.0691 -0.8835
vn 0.6411 0.7638 0.0749
vn -0.1029 0.8729 0.4770
vn 0.9930 0.0773 -0.0897
vn 0.3598 0.9330 -0.0082
vn -0.1069 0.9812 -0.1608
vn -0.0921 0.9830 0.1586
vn 0.8887 0.3337 -0.3143
s 1
f 2//1 19//2 18//3
f 23//4 5//5 20//6
f 37//7 21//8 40//9
f 21//8 6//10 11//11
f 1//12 3//13 2//1
f 24//14 10//15 5//5
f 37//7 7//16 6//10
f 6//10 7//16 11//11
f 8//17 4//18 1//12
f 25//19 13//20 10//15
f 38//21 7//16 41//22
f 7//16 15//23 11//11
f 17//24 9//25 8//17
f 22//26 13//20 26//27
f 38//21 16//28 15//23
f 15//23 16//28 11//11
f 19//2 17//24 18//3
f 23//4 14//29 22//26
f 39//30 21//8 16//28
f 16//28 21//8 11//11
f 28//31 35//32 34//33
f 28//31 33//34 29//35
f 29//35 36//36 31//37
f 31//37 32//38 27//39
f 30//40 32//38 35//32
f 44//41 46//42 45//43
f 42//44 46//42 43//45
f 44//41 47//46 42//44
f 44//41 48//47 50//48
f 43//45 50//48 49//49
f 43//45 48//47 42//44
f 2//1 3//13 19//2
f 23//4 24//14 5//5
f 37//7 6//10 21//8
f 1//12 4//18 3//13
f 24//14 25//19 10//15
f 37//7 41//22 7//16
f 8//17 9//25 4//18
f 25//19 26//27 13//20
f 38//21 15//23 7//16
f 17//24 12//50 9//25
f 22//26 14//29 13//20
f 38//21 39//30 16//28
f 19//2 12//50 17//24
f 23//4 20//6 14//29
f 39//30 40//9 21//8
f 28//31 30//40 35//32
f 28//31 34//33 33//34
f 29//35 33//34 36//36
f 31//37 36//36 32//38
f 30//40 27//39 32//38
f 44//41 43//45 46//42
f 42//44 47//46 46//42
f 44//41 45//43 47//46
f 44//41 42//44 48//47
f 43//45 44//41 50//48
f 43//45 49//49 48//47
