# Blender 4.0.1
# www.blender.org
o SM_Tree0
v 0.000000 0.427101 -0.721499 0.1098 0.1412 0.0941
v 0.763833 0.427101 0.601499 0.1176 0.1137 0.0588
v 0.000000 13.637112 -0.060000 0.0000 0.0000 0.0000
v -0.763833 0.427101 0.601499 0.1333 0.1294 0.0667
v -0.004028 2.811459 -0.379487 0.1686 0.1882 0.0039
v -0.040308 5.429049 -0.289615 0.1686 0.1882 0.0039
v 0.000000 7.952991 -0.253334 0.1686 0.1882 0.0039
v -0.013698 10.401210 -0.202196 0.1686 0.1882 0.0039
v -0.025489 12.880779 -0.168899 0.0000 0.0000 0.0000
v 0.163939 10.406677 0.106205 0.1686 0.1882 0.0039
v 0.189076 7.817529 0.075764 0.1686 0.1882 0.0039
v 0.241590 5.427101 0.149223 0.1686 0.1882 0.0039
v 0.329361 2.812913 0.225235 0.1686 0.1882 0.0039
v -0.167221 10.399567 0.112585 0.1686 0.1882 0.0039
v -0.223243 7.952991 0.133334 0.1686 0.1882 0.0039
v -0.241590 5.427101 0.149223 0.1686 0.1882 0.0039
v -0.329361 2.812913 0.225235 0.1686 0.1882 0.0039
v 0.040966 5.900779 -0.244697 0.1686 0.1882 0.0039
v 0.237293 5.907870 0.145502 0.1686 0.1882 0.0039
v -0.196985 5.905922 0.165893 0.1686 0.1882 0.0039
v -0.013241 3.419894 -0.252200 0.1686 0.1882 0.0039
v 0.224974 3.430826 0.184936 0.1686 0.1882 0.0039
v -0.220946 3.434455 0.184533 0.1686 0.1882 0.0039
v -0.016836 10.050788 -0.232585 0.1686 0.1882 0.0039
v 0.206773 10.051950 0.091075 0.1686 0.1882 0.0039
v -0.184058 10.046365 0.099399 0.1686 0.1882 0.0039
v 0.000000 7.202247 -0.253334 0.1686 0.1882 0.0039
v 0.189076 7.337708 0.190905 0.1686 0.1882 0.0039
v -0.189076 7.337708 0.190905 0.1686 0.1882 0.0039
v 0.262820 3.426906 0.133937 0.1686 0.1882 0.0039
v 0.329361 2.817920 0.258907 0.1686 0.1882 0.0039
v -0.262820 3.431913 0.167609 0.1686 0.1882 0.0039
v -0.329361 2.817920 0.258907 0.1686 0.1882 0.0039
v 0.262820 3.935484 2.612260 0.1686 0.1882 0.0039
v 0.329361 3.326499 2.737230 0.1686 0.1882 0.0039
v -0.329361 3.326499 2.737230 0.1686 0.1882 0.0039
v -2.109669 5.900328 -1.494784 0.1686 0.1882 0.0039
v -2.028395 6.372059 -1.449867 0.1686 0.1882 0.0039
v -2.266346 6.377202 -1.039276 0.1686 0.1882 0.0039
v 0.101719 8.638172 2.104979 0.1686 0.1882 0.0039
v 0.101719 8.158350 2.220120 0.1686 0.1882 0.0039
v -0.276432 8.158350 2.220120 0.1686 0.1882 0.0039
v -0.891118 10.357673 -0.651725 0.1686 0.1882 0.0039
v -0.763616 10.686619 -0.593136 0.1686 0.1882 0.0039
v -0.921731 10.688697 -0.260714 0.1686 0.1882 0.0039
v 2.338565 3.357398 -1.761121 0.1686 0.1882 0.0039
v 2.254188 3.965557 -1.663632 0.1686 0.1882 0.0039
v 2.525692 3.974223 -1.213623 0.1686 0.1882 0.0039
v -1.289513 3.396806 -0.944214 0.1686 0.1882 0.0039
v -1.164763 3.979596 -0.767372 0.1686 0.1882 0.0039
v -1.355705 3.999580 -0.323265 0.1686 0.1882 0.0039
v 1.157716 10.571567 -0.879944 0.1686 0.1882 0.0039
v 1.335353 10.577035 -0.571542 0.1686 0.1882 0.0039
v 1.378187 10.222306 -0.586673 0.1686 0.1882 0.0039
v 0.000000 -0.345005 -3.748533 0.0980 0.1647 0.1216
v 4.233141 -0.305934 3.587242 0.1020 0.1804 0.1255
v -4.233141 -0.305934 3.587242 0.1020 0.1843 0.1333
v -1.685263 5.792958 3.188596 0.1647 0.3372 0.0863
v -2.206692 3.273379 3.351690 0.2157 0.4118 0.1020
v -0.485403 5.806556 1.171719 0.0196 0.3804 0.0549
v -0.441249 2.077070 1.725257 0.0000 0.2549 0.0353
v -0.908495 4.098834 0.510684 0.0824 0.2902 0.0549
v 2.024383 5.025866 2.149704 0.2078 0.4784 0.1020
v 1.323355 2.567159 2.118570 0.0000 0.2549 0.0353
v 0.478985 4.274880 4.946610 0.3137 0.5294 0.1373
v 0.170869 6.296645 3.682264 0.3176 0.4628 0.1451
v 0.450001 2.567159 4.162305 0.0745 0.1608 0.0431
v 0.394172 7.054118 3.169934 0.0235 0.3804 0.0549
v 1.444885 8.945163 1.693791 0.3412 0.5333 0.1725
v 0.691643 8.777240 4.127598 0.3333 0.6039 0.1451
v -0.904821 9.501307 3.695938 0.4667 0.5333 0.2235
v -1.188905 7.804251 3.145804 0.1569 0.2275 0.0706
v -1.189319 9.707182 2.199537 0.3255 0.6039 0.1412
v 0.919744 10.047844 3.098604 0.3686 0.5333 0.1843
v -0.711816 8.074256 1.275465 0.2549 0.4196 0.1333
v 1.576222 6.122402 -2.877017 0.2980 0.4902 0.1412
v 0.854703 3.897439 -3.262398 0.2627 0.5137 0.1176
v 2.944203 1.864427 -2.128433 0.0000 0.2902 0.0392
v 4.263050 4.377014 -2.418465 0.2627 0.5098 0.1176
v 3.481460 5.633055 0.609902 0.1333 0.3372 0.0706
v 1.365543 4.312150 1.400852 0.0039 0.3725 0.0549
v 3.304006 2.550235 0.443964 0.0157 0.3568 0.0510
v 2.841268 6.717301 -1.182546 0.4667 0.5333 0.2235
v -0.309162 5.128619 -0.141988 0.0980 0.3176 0.0588
v 0.603538 2.055369 -0.483376 0.0000 0.2549 0.0353
v -4.946524 6.807003 -1.536210 0.3294 0.4628 0.1725
v -3.013332 4.378280 -1.382325 0.0000 0.2549 0.0353
v -3.173243 7.411165 -3.464162 0.4667 0.5333 0.2235
v -1.101350 5.406600 -2.302010 0.0196 0.2706 0.0392
v -0.972195 7.167470 -2.877409 0.2000 0.3804 0.0824
v -1.574738 8.728563 -1.496761 0.2706 0.4745 0.1137
v -0.579168 6.573318 -0.437581 0.1137 0.2745 0.0549
v -2.800822 7.034485 0.951789 0.3137 0.5255 0.1412
v -3.293601 8.804648 -0.554025 0.3765 0.5843 0.1725
v -2.051993 5.425526 0.405044 0.0000 0.3804 0.0549
v -1.613927 3.435022 -1.368610 0.0078 0.3804 0.0549
v -0.765334 4.594292 -0.250126 0.1843 0.4118 0.1098
v -1.486697 2.635511 0.200311 0.0000 0.3804 0.0549
v -1.528529 3.962884 1.291194 0.0745 0.2941 0.0667
v -2.726395 3.278581 1.114332 0.0588 0.2823 0.0510
v -3.404709 3.435022 -0.515241 0.3098 0.4941 0.1451
v -2.178714 5.288316 0.689877 0.3412 0.6118 0.1530
v -2.691285 5.081299 -0.814116 0.3333 0.6118 0.1451
v -0.789932 11.878452 -2.061990 0.3255 0.6039 0.1412
v -0.272991 9.987803 -1.411688 0.1451 0.2078 0.0902
v 0.289052 12.143723 -0.295506 0.2941 0.5647 0.1294
v 0.057888 10.531608 0.465838 0.0667 0.3921 0.0588
v -2.299592 11.126393 0.552817 0.4275 0.6550 0.2000
v -1.621571 9.630732 -0.104429 0.0196 0.2588 0.0353
v -1.851345 12.614505 -0.312582 0.3804 0.6589 0.1804
v -2.170653 10.478814 -1.715116 0.4078 0.5647 0.1922
v 1.059476 11.290365 -0.284161 0.4392 0.5530 0.2039
v -0.135895 11.722324 0.912596 0.4628 0.6118 0.2471
v 0.865877 12.483745 0.210840 0.4706 0.5451 0.2275
v -0.200276 12.423749 -0.467867 0.3372 0.5137 0.1647
v 0.045029 11.067678 -0.521283 0.3333 0.4118 0.1725
v 0.204861 10.226316 -0.661657 0.1373 0.2941 0.0941
v 1.453436 9.693737 -1.151500 0.3255 0.4471 0.1608
v 1.090368 11.302356 -1.691963 0.2627 0.4863 0.1294
v 1.796658 10.144454 0.408318 0.3059 0.4550 0.1490
v 2.254548 11.738733 -0.569716 0.3255 0.6039 0.1412
v 0.448608 11.233252 0.239738 0.3372 0.5373 0.1569
v 3.138697 7.096439 -1.901457 0.1922 0.2823 0.0784
v 2.747795 4.862563 0.546714 0.0118 0.3137 0.0510
v 4.654679 7.822116 1.474608 0.3255 0.6039 0.1412
v 2.476858 7.386849 3.261862 0.2157 0.3608 0.1294
v 0.755367 5.199387 1.622031 0.0000 0.2549 0.0353
v 1.577758 9.957280 2.076833 0.3608 0.5647 0.1608
v -0.726670 8.743797 1.185189 0.0980 0.3921 0.0667
v -0.664244 6.526478 1.113270 0.0000 0.3804 0.0549
v 1.847324 10.501585 -0.174520 0.4667 0.5333 0.2235
v 3.564000 9.089239 -1.255395 0.3098 0.5530 0.1373
v 0.204527 6.985447 -1.845218 0.1451 0.3490 0.0784
v 1.340502 8.759904 -3.531986 0.2157 0.3921 0.0980
v 1.054998 6.998375 -1.690889 0.2941 0.5686 0.1294
v -0.360804 10.514805 -0.503145 0.2392 0.4471 0.1176
v 0.870328 8.674842 -0.100368 0.0353 0.3804 0.0627
v -0.707838 6.491108 -1.063143 0.0078 0.0627 0.0157
v -2.506404 8.589781 -0.871564 0.2863 0.5098 0.1255
v -2.089977 10.351309 -2.523348 0.3255 0.6039 0.1412
v -1.872431 8.674843 -4.066330 0.3255 0.6039 0.1412
v -2.135687 6.998375 -2.272648 0.2157 0.2471 0.1059
v 0.272201 10.855381 -3.039391 0.4589 0.5373 0.2196
v -0.215954 7.012449 -3.760906 0.3255 0.6000 0.1412
v 0.791545 7.172581 0.616132 0.2157 0.3568 0.0941
v -0.547632 5.601296 3.283705 0.0157 0.0745 0.0235
v -0.146225 7.348751 3.817100 0.3568 0.4745 0.1765
v -2.720862 5.577826 2.505448 0.0000 0.2549 0.0353
v -3.415054 7.172581 2.956581 0.3255 0.6039 0.1412
v -3.093718 8.373799 0.613599 0.2863 0.5019 0.1216
v -1.480094 8.184157 -0.335560 0.2471 0.4353 0.0980
v -2.075877 5.601296 0.289008 0.0863 0.3019 0.0549
v -1.373512 9.444227 3.006573 0.4314 0.5686 0.2118
v 0.190595 8.940157 1.162731 0.2627 0.3686 0.1216
v -0.366533 5.079956 1.303994 0.1137 0.2510 0.0549
v -0.260172 7.295340 -1.167455 0.2549 0.3921 0.1137
v 1.420285 5.768159 -1.262882 0.1686 0.2588 0.0745
v -0.627687 4.603310 -0.781976 0.0000 0.3686 0.0510
v -2.185692 4.885074 -1.897241 0.0000 0.3451 0.0510
v -1.819918 7.308967 -2.927638 0.4157 0.5294 0.1961
v -1.901613 4.844999 -4.300402 0.2902 0.4745 0.1294
v -0.117981 7.308967 -4.364359 0.3216 0.6000 0.1412
v 1.389826 5.685802 -4.416238 0.1451 0.3412 0.0706
v 0.776840 7.800104 -2.788980 0.2510 0.5255 0.1137
v 0.874421 3.564084 -3.253282 0.2667 0.5098 0.1176
v -1.357682 8.865594 1.325144 0.0000 0.3804 0.0549
v -1.354215 10.922527 2.811818 0.3255 0.6039 0.1412
v -1.884531 11.086671 1.013143 0.3372 0.6000 0.1490
v -0.720844 11.376099 0.079377 0.3098 0.4823 0.1530
v 0.601246 9.790605 0.139611 0.2706 0.4706 0.1373
v 0.365529 11.960573 1.285333 0.3255 0.6039 0.1412
v 0.868116 10.855659 2.540519 0.4432 0.5490 0.2078
v 0.434359 9.061525 2.067528 0.2471 0.4550 0.1176
vn -0.9790 -0.1890 0.0758
vn -0.0000 0.8792 -0.4764
vn -0.3949 0.9114 0.1156
vn -0.8520 0.0392 0.5220
vn 0.0488 0.6531 -0.7557
vn -0.6180 -0.7466 0.2464
vn -0.8373 0.0264 0.5461
vn -0.0057 -0.0306 -0.9995
vn -0.9285 -0.1930 0.3173
vn -0.4191 0.0879 0.9037
vn 0.1045 -0.2287 -0.9679
vn -0.8552 0.0177 0.5180
vn 0.9820 -0.1696 0.0827
vn 0.3949 0.9114 0.1156
vn 0.8785 0.0142 0.4775
vn 0.5864 -0.7666 0.2615
vn 0.9738 0.2103 0.0864
vn -0.9320 -0.3482 0.1007
vn 0.2746 0.8955 -0.3503
vn 0.1805 0.4343 0.8825
vn 0.7146 -0.3249 0.6195
vn 0.0068 -0.0213 -0.9997
vn 0.9171 -0.3284 0.2260
vn 0.3730 0.5474 -0.7491
vn 0.1327 -0.3419 -0.9303
vn 0.8732 -0.0238 0.4869
vn -0.6136 0.1153 0.7811
vn -0.0578 -0.3037 -0.9510
vn 0.7473 -0.6567 0.1016
vn 0.5834 0.3091 -0.7511
vn -0.7970 -0.5321 0.2858
vn 0.3214 0.9276 -0.1904
vn -0.9234 0.1951 -0.3306
vn 0.8365 -0.5067 0.2087
vn -0.0812 -0.8852 -0.4581
vn -0.5055 0.3647 -0.7820
vn 0.3000 -0.9088 0.2901
vn -0.3967 0.3869 0.8324
vn 0.0335 -0.9099 -0.4134
vn -0.0587 -0.9053 -0.4207
vn 0.3997 0.4070 0.8213
vn -0.1298 -0.8034 -0.5812
vn -0.9192 -0.3858 0.0792
vn 0.7438 -0.6548 0.1344
vn 0.4757 0.6884 -0.5475
vn 0.7271 -0.6250 0.2841
vn -0.3175 0.3332 0.8878
vn 0.5333 0.6336 -0.5605
vn -0.4890 0.7056 -0.5128
vn 0.5490 0.7057 -0.4479
vn -0.1804 0.4319 0.8837
vn 0.2693 0.7151 0.6451
vn -0.0000 0.9693 -0.2458
vn -0.1362 0.9871 0.0841
vn 0.1362 0.9871 0.0841
vn -0.1765 -0.8864 -0.4280
vn 0.2784 -0.7090 0.6480
vn -0.8926 -0.3491 0.2851
vn 0.2651 0.0466 0.9631
vn -0.7557 0.6171 0.2195
vn -0.3288 -0.0501 -0.9431
vn 0.1734 0.8859 0.4302
vn -0.1295 0.7144 -0.6876
vn 0.9211 0.3032 -0.2442
vn 0.7339 -0.6189 -0.2800
vn -0.3635 -0.3491 -0.8637
vn 0.7951 0.1080 -0.5968
vn 0.2718 -0.9200 0.2823
vn 0.5226 0.8333 0.1805
vn 0.4066 -0.0626 0.9115
vn -0.5659 0.4383 0.6983
vn -0.7544 -0.5340 0.3818
vn -0.6685 0.6414 -0.3764
vn -0.8833 0.3731 0.2838
vn -0.2159 0.6858 -0.6950
vn -0.4928 -0.1681 -0.8537
vn 0.2696 0.9630 0.0049
vn 0.3334 -0.8323 -0.4429
vn -0.5988 -0.7791 0.1857
vn 0.8598 0.0472 -0.5084
vn 0.5606 0.5108 0.6517
vn 0.5466 -0.5922 0.5921
vn -0.2486 0.0611 0.9667
vn -0.1550 0.1320 0.9790
vn -0.2458 -0.9680 -0.0507
vn 0.1882 -0.6585 0.7287
vn -0.9972 -0.0361 -0.0659
vn -0.3311 0.8869 0.3221
vn -0.3039 0.2318 -0.9240
vn 0.5981 -0.6685 -0.4420
vn 0.4619 0.8861 -0.0388
vn 0.6989 0.1891 -0.6898
vn 0.9077 -0.0444 0.4173
vn -0.4381 0.7298 -0.5248
vn -0.1568 0.8609 0.4841
vn 0.9017 0.3996 -0.1654
vn 0.2959 -0.3440 -0.8911
vn 0.4192 -0.9013 0.1093
vn 0.4494 0.0119 0.8933
vn -0.5469 -0.4087 0.7306
vn -0.8994 -0.3307 -0.2860
vn -0.3120 -0.8958 0.3165
vn -0.6871 -0.3146 -0.6549
vn 0.5515 -0.6577 -0.5131
vn 0.1733 0.4536 -0.8742
vn -0.4529 0.8707 0.1915
vn 0.7765 0.5908 0.2191
vn 0.6524 -0.3030 0.6947
vn -0.6870 0.0572 0.7244
vn 0.8332 -0.4887 -0.2588
vn 0.6528 0.7253 0.2184
vn -0.4237 -0.1274 0.8968
vn -0.3526 -0.7623 -0.5427
vn -0.5412 0.6412 -0.5440
vn -0.6276 0.4495 0.6356
vn 0.7311 0.6823 0.0052
vn -0.1510 0.4419 -0.8843
vn 0.4482 -0.4817 0.7530
vn 0.2520 -0.8385 -0.4831
vn -0.8952 -0.4388 -0.0778
vn -0.3850 -0.8304 0.4028
vn -0.5476 -0.1944 -0.8138
vn 0.3567 -0.9331 -0.0444
vn 0.4548 -0.2621 -0.8511
vn 0.5865 0.5242 -0.6174
vn 0.9510 0.0636 0.3025
vn -0.0183 0.9559 -0.2931
vn 0.1602 -0.0966 0.9824
vn -0.0480 0.7785 0.6258
vn -0.8854 0.4005 0.2360
vn -0.8896 -0.3840 0.2472
vn -0.0964 -0.8623 0.4971
vn 0.1388 -0.6768 -0.7230
vn 0.7433 -0.6546 0.1383
vn 0.8134 0.0835 -0.5756
vn 0.3795 0.8396 -0.3887
vn 0.5812 0.0314 0.8131
vn 0.0697 0.7298 0.6801
vn -0.8235 -0.0109 0.5671
vn -0.7075 0.6862 -0.1692
vn -0.7352 -0.6682 -0.1145
vn -0.5518 0.0339 -0.8333
vn 0.6195 0.7559 -0.2117
vn 0.5080 0.0553 0.8596
vn 0.8872 -0.0903 -0.4525
vn 0.3377 -0.6575 0.6736
vn 0.4438 -0.8697 -0.2160
vn -0.6307 -0.7152 0.3011
vn -0.0563 0.8737 0.4833
vn -0.8614 -0.0064 0.5079
vn -0.3660 -0.6342 -0.6810
vn -0.7617 0.4669 -0.4493
vn -0.0376 0.3900 -0.9200
vn 0.4994 0.8663 0.0053
vn 0.7876 -0.0092 0.6161
vn 0.7096 -0.0341 -0.7038
vn 0.4197 -0.8898 -0.1791
vn -0.1562 -0.5013 0.8510
vn -0.0879 0.6518 0.7532
vn -0.8484 -0.3655 0.3830
vn -0.7376 0.6739 -0.0424
vn -0.6432 -0.3837 -0.6626
vn -0.0089 0.6374 -0.7704
vn 0.4800 -0.7673 0.4253
vn -0.5188 0.2654 0.8126
vn -0.5634 -0.8215 -0.0876
vn 0.7321 0.2208 0.6445
vn 0.4378 0.8961 -0.0733
vn -0.8934 0.3670 -0.2591
vn -0.2078 0.4853 -0.8493
vn 0.5546 -0.3419 -0.7587
s 1
f 17//1 1//2 4//3
f 16//4 21//5 23//6
f 15//7 27//8 29//9
f 14//10 24//11 26//12
f 13//13 4//3 2//14
f 12//15 23//6 22//16
f 11//17 42//18 40//19
f 10//20 26//12 25//21
f 1//2 13//13 2//14
f 21//5 12//15 22//16
f 7//22 28//23 27//8
f 8//24 25//21 24//11
f 6//25 19//26 12//15
f 19//26 16//4 12//15
f 20//27 6//25 16//4
f 5//28 22//16 13//13
f 22//16 31//29 13//13
f 23//6 5//28 17//1
f 7//22 25//21 11//17
f 25//21 15//7 11//17
f 26//12 7//22 15//7
f 18//30 28//23 19//26
f 28//23 20//27 19//26
f 29//9 18//30 20//27
f 33//31 34//32 30//33
f 13//13 33//31 17//1
f 23//6 30//33 22//16
f 17//1 32//34 23//6
f 17//1 5//28 1//2
f 16//4 6//25 21//5
f 15//7 7//22 27//8
f 14//10 43//35 24//11
f 13//13 17//1 4//3
f 12//15 16//4 23//6
f 11//17 15//7 29//9
f 10//20 14//10 26//12
f 1//2 5//28 13//13
f 21//5 6//25 12//15
f 7//22 11//17 28//23
f 25//21 52//36 54//37
f 6//25 18//30 19//26
f 19//26 20//27 16//4
f 6//25 39//38 37//39
f 22//16 46//40 48//41
f 22//16 30//33 31//29
f 23//6 49//42 5//28
f 7//22 24//11 25//21
f 25//21 26//12 15//7
f 26//12 24//11 7//22
f 18//30 27//8 28//23
f 28//23 29//9 20//27
f 29//9 27//8 18//30
f 30//33 32//34 33//31
f 13//13 31//29 33//31
f 23//6 32//34 30//33
f 17//1 33//31 32//34
f 31//29 36//43 33//31
f 30//33 35//44 31//29
f 18//30 39//38 20//27
f 18//30 37//39 38//45
f 29//9 41//46 42//18
f 11//17 41//46 28//23
f 8//24 45//47 14//10
f 8//24 43//35 44//48
f 21//5 48//41 47//49
f 21//5 46//40 5//28
f 23//6 50//50 51//51
f 21//5 49//42 50//50
f 25//21 53//52 10//20
f 10//20 52//36 8//24
f 11//17 29//9 42//18
f 33//31 36//43 34//32
f 14//10 45//47 43//35
f 25//21 8//24 52//36
f 6//25 20//27 39//38
f 22//16 5//28 46//40
f 23//6 51//51 49//42
f 31//29 35//44 36//43
f 30//33 34//32 35//44
f 18//30 38//45 39//38
f 18//30 6//25 37//39
f 29//9 28//23 41//46
f 11//17 40//19 41//46
f 8//24 44//48 45//47
f 8//24 24//11 43//35
f 21//5 22//16 48//41
f 21//5 47//49 46//40
f 23//6 21//5 50//50
f 21//5 5//28 49//42
f 25//21 54//37 53//52
f 10//20 53//52 52//36
f 4//3 55//53 57//54
f 4//3 56//55 2//14
f 2//14 55//53 1//2
f 61//56 67//57 59//58
f 65//59 58//60 59//58
f 65//59 59//58 67//57
f 58//60 62//61 59//58
f 59//58 62//61 61//56
f 58//60 66//62 60//63
f 60//63 66//62 63//64
f 60//63 63//64 62//61
f 62//61 64//65 61//56
f 63//64 67//57 64//65
f 61//56 64//65 67//57
f 75//66 69//67 68//68
f 74//69 70//70 69//67
f 68//68 71//71 72//72
f 71//71 74//69 73//73
f 73//73 75//66 72//72
f 68//68 72//72 75//66
f 73//73 74//69 69//67
f 84//74 76//75 77//76
f 84//74 83//77 76//75
f 77//76 78//78 85//79
f 76//75 79//80 77//76
f 83//77 80//81 79//80
f 79//80 82//82 78//78
f 81//83 85//79 82//82
f 80//81 83//77 84//74
f 78//78 82//82 85//79
f 93//84 87//85 95//86
f 86//87 94//88 88//89
f 88//89 89//90 87//85
f 88//89 94//88 91//91
f 90//92 92//93 89//90
f 87//85 89//90 92//93
f 90//92 91//91 92//93
f 87//85 92//93 95//86
f 91//91 93//84 92//93
f 103//94 102//95 97//96
f 96//97 97//96 98//98
f 99//99 100//100 98//98
f 102//95 100//100 99//99
f 98//98 100//100 101//101
f 102//95 101//101 100//100
f 98//98 101//101 96//97
f 103//94 96//97 101//101
f 109//102 111//103 105//104
f 104//105 110//106 106//107
f 109//102 105//104 107//108
f 106//107 108//109 107//108
f 107//108 108//109 109//102
f 108//109 111//103 109//102
f 108//109 110//106 111//103
f 112//110 114//111 113//112
f 116//113 112//110 113//112
f 113//112 114//111 115//114
f 122//115 121//116 119//117
f 121//116 120//118 118//119
f 122//115 117//120 120//118
f 118//119 120//118 117//120
f 127//121 133//122 124//123
f 123//124 124//123 133//122
f 132//125 125//126 123//124
f 132//125 131//127 125//126
f 126//128 127//121 124//123
f 125//126 131//127 128//129
f 128//129 129//130 126//128
f 126//128 130//131 127//121
f 129//130 133//122 130//131
f 127//121 130//131 133//122
f 131//127 133//122 129//130
f 133//122 132//125 123//124
f 138//132 144//133 135//134
f 144//133 134//135 135//134
f 143//136 137//137 134//135
f 135//134 137//137 138//132
f 137//137 136//138 139//139
f 136//138 143//136 140//140
f 139//139 142//141 138//132
f 140//140 141//142 139//139
f 141//142 144//133 142//141
f 138//132 142//141 144//133
f 143//136 134//135 141//142
f 154//143 147//144 145//145
f 145//145 146//146 155//147
f 155//147 146//146 148//148
f 153//149 149//150 147//144
f 146//146 149//150 148//148
f 149//150 152//151 148//148
f 155//147 148//148 152//151
f 150//152 153//149 151//153
f 152//151 145//145 155//147
f 151//153 153//149 154//143
f 164//154 157//155 163//156
f 165//157 157//155 158//158
f 156//159 158//158 157//155
f 165//157 158//158 159//160
f 156//159 159//160 158//158
f 156//159 164//154 160//161
f 165//157 159//160 161//162
f 160//161 161//162 159//160
f 160//161 164//154 162//163
f 162//163 163//156 161//162
f 173//164 167//165 166//166
f 172//167 171//168 167//165
f 167//165 171//168 168//169
f 168//169 171//168 169//170
f 169//170 170//171 166//166
f 166//166 170//171 173//164
f 171//168 172//167 170//171
f 65//59 66//62 58//60
f 58//60 60//63 62//61
f 62//61 63//64 64//65
f 63//64 65//59 67//57
f 63//64 66//62 65//59
f 69//67 70//70 68//68
f 70//70 74//69 71//71
f 68//68 70//70 71//71
f 71//71 73//73 72//72
f 73//73 69//67 75//66
f 84//74 77//76 85//79
f 77//76 79//80 78//78
f 76//75 83//77 79//80
f 79//80 80//81 82//82
f 80//81 81//83 82//82
f 81//83 80//81 84//74
f 85//79 81//83 84//74
f 93//84 94//88 86//87
f 93//84 86//87 87//85
f 86//87 88//89 87//85
f 88//89 90//92 89//90
f 90//92 88//89 91//91
f 92//93 93//84 95//86
f 91//91 94//88 93//84
f 103//94 97//96 96//97
f 97//96 102//95 99//99
f 97//96 99//99 98//98
f 102//95 103//94 101//101
f 111//103 104//105 105//104
f 104//105 106//107 105//104
f 105//104 106//107 107//108
f 106//107 110//106 108//109
f 111//103 110//106 104//105
f 112//110 115//114 114//111
f 113//112 115//114 116//113
f 115//114 112//110 116//113
f 122//115 119//117 117//120
f 117//120 119//117 118//119
f 119//117 121//116 118//119
f 120//118 121//116 122//115
f 124//123 123//124 125//126
f 125//126 126//128 124//123
f 125//126 128//129 126//128
f 126//128 129//130 130//131
f 128//129 131//127 129//130
f 133//122 131//127 132//125
f 143//136 136//138 137//137
f 135//134 134//135 137//137
f 137//137 139//139 138//132
f 136//138 140//140 139//139
f 139//139 141//142 142//141
f 140//140 143//136 141//142
f 141//142 134//135 144//133
f 154//143 153//149 147//144
f 145//145 147//144 146//146
f 146//146 147//144 149//150
f 153//149 150//152 149//150
f 149//150 150//152 152//151
f 150//152 151//153 152//151
f 152//151 151//153 145//145
f 151//153 154//143 145//145
f 163//156 157//155 165//157
f 157//155 164//154 156//159
f 156//159 160//161 159//160
f 160//161 162//163 161//162
f 161//162 163//156 165//157
f 162//163 164//154 163//156
f 173//164 172//167 167//165
f 166//166 167//165 168//169
f 168//169 169//170 166//166
f 170//171 169//170 171//168
f 170//171 172//167 173//164
f 4//3 1//2 55//53
f 4//3 57//54 56//55
f 2//14 56//55 55//53
