# Blender 4.0.1
# www.blender.org
o presents
v 1.283850 -0.176356 -0.000000 0.9490 0.8000 0.8666
v 1.382191 -0.178952 -0.000000 0.9490 0.8000 0.8666
v 1.371434 -0.110426 -0.000000 0.9490 0.8000 0.8666
v 1.323417 -0.037525 -0.000000 0.9490 0.8000 0.8666
v 1.194792 -0.012216 -0.000000 0.9490 0.8000 0.8666
v 1.096691 -0.080823 -0.000000 0.9490 0.8000 0.8666
v 1.075288 -0.174950 -0.000000 0.9490 0.8000 0.8666
v 1.089642 -0.250137 -0.000000 0.9490 0.8000 0.8666
v 1.146785 -0.304988 -0.000000 0.9490 0.8000 0.8666
v 1.277305 -0.354409 -0.000000 0.9490 0.8000 0.8666
v 1.265715 -0.417937 -0.000000 0.9490 0.8000 0.8666
v 1.190042 -0.412737 -0.000000 0.9490 0.8000 0.8666
v 1.162471 -0.354819 -0.000000 0.9490 0.8000 0.8666
v 1.065533 -0.351038 -0.000000 0.9490 0.8000 0.8666
v 1.077515 -0.434353 -0.000000 0.9490 0.8000 0.8666
v 1.128320 -0.511472 -0.000000 0.9490 0.8000 0.8666
v 1.271498 -0.536667 -0.000000 0.9490 0.8000 0.8666
v 1.345775 -0.496486 -0.000000 0.9490 0.8000 0.8666
v 1.386218 -0.421055 -0.000000 0.9490 0.8000 0.8666
v 1.373046 -0.301079 -0.000000 0.9490 0.8000 0.8666
v 1.312594 -0.239932 -0.000000 0.9490 0.8000 0.8666
v 1.193464 -0.196485 -0.000000 0.9490 0.8000 0.8666
v 1.185494 -0.148277 -0.000000 0.9490 0.8000 0.8666
v 1.247059 -0.122494 -0.000000 0.9490 0.8000 0.8666
v 0.702351 -0.130928 -0.000000 0.9490 0.8000 0.8666
v 0.817909 -0.130928 -0.000000 0.9490 0.8000 0.8666
v 0.817909 -0.531128 -0.000000 0.9490 0.8000 0.8666
v 0.920710 -0.531128 -0.000000 0.9490 0.8000 0.8666
v 0.920710 -0.130928 -0.000000 0.9490 0.8000 0.8666
v 1.036268 -0.130928 -0.000000 0.9490 0.8000 0.8666
v 1.036268 -0.018872 -0.000000 0.9490 0.8000 0.8666
v 0.702351 -0.018872 -0.000000 0.9490 0.8000 0.8666
v 0.663332 -0.018872 -0.000000 0.9490 0.8000 0.8666
v 0.559029 -0.018872 -0.000000 0.9490 0.8000 0.8666
v 0.557914 -0.287511 -0.000000 0.9490 0.8000 0.8666
v 0.419460 -0.018872 -0.000000 0.9490 0.8000 0.8666
v 0.330915 -0.018872 -0.000000 0.9490 0.8000 0.8666
v 0.330915 -0.531128 -0.000000 0.9490 0.8000 0.8666
v 0.435218 -0.531128 -0.000000 0.9490 0.8000 0.8666
v 0.436048 -0.261613 -0.000000 0.9490 0.8000 0.8666
v 0.576288 -0.531128 -0.000000 0.9490 0.8000 0.8666
v 0.663332 -0.531128 -0.000000 0.9490 0.8000 0.8666
v 0.002251 -0.531128 -0.000000 0.9490 0.8000 0.8666
v 0.278389 -0.531128 -0.000000 0.9490 0.8000 0.8666
v 0.278389 -0.419072 -0.000000 0.9490 0.8000 0.8666
v 0.106553 -0.419072 -0.000000 0.9490 0.8000 0.8666
v 0.106553 -0.331028 -0.000000 0.9490 0.8000 0.8666
v 0.264882 -0.331028 -0.000000 0.9490 0.8000 0.8666
v 0.264882 -0.218972 -0.000000 0.9490 0.8000 0.8666
v 0.106553 -0.218972 -0.000000 0.9490 0.8000 0.8666
v 0.106553 -0.130928 -0.000000 0.9490 0.8000 0.8666
v 0.279140 -0.130928 -0.000000 0.9490 0.8000 0.8666
v 0.279140 -0.018872 -0.000000 0.9490 0.8000 0.8666
v 0.002251 -0.018872 -0.000000 0.9490 0.8000 0.8666
v -0.141113 -0.176356 -0.000000 0.9490 0.8000 0.8666
v -0.042771 -0.178952 -0.000000 0.9490 0.8000 0.8666
v -0.053529 -0.110426 -0.000000 0.9490 0.8000 0.8666
v -0.101546 -0.037525 -0.000000 0.9490 0.8000 0.8666
v -0.230171 -0.012216 -0.000000 0.9490 0.8000 0.8666
v -0.328271 -0.080824 -0.000000 0.9490 0.8000 0.8666
v -0.349675 -0.174950 -0.000000 0.9490 0.8000 0.8666
v -0.335321 -0.250137 -0.000000 0.9490 0.8000 0.8666
v -0.278177 -0.304988 -0.000000 0.9490 0.8000 0.8666
v -0.147658 -0.354409 -0.000000 0.9490 0.8000 0.8666
v -0.159248 -0.417937 -0.000000 0.9490 0.8000 0.8666
v -0.234921 -0.412737 -0.000000 0.9490 0.8000 0.8666
v -0.262491 -0.354819 -0.000000 0.9490 0.8000 0.8666
v -0.359430 -0.351038 -0.000000 0.9490 0.8000 0.8666
v -0.347447 -0.434353 -0.000000 0.9490 0.8000 0.8666
v -0.296643 -0.511472 -0.000000 0.9490 0.8000 0.8666
v -0.153464 -0.536667 -0.000000 0.9490 0.8000 0.8666
v -0.079188 -0.496486 -0.000000 0.9490 0.8000 0.8666
v -0.038745 -0.421055 -0.000000 0.9490 0.8000 0.8666
v -0.051917 -0.301079 -0.000000 0.9490 0.8000 0.8666
v -0.112369 -0.239932 -0.000000 0.9490 0.8000 0.8666
v -0.231498 -0.196485 -0.000000 0.9490 0.8000 0.8666
v -0.239468 -0.148277 -0.000000 0.9490 0.8000 0.8666
v -0.177903 -0.122494 -0.000000 0.9490 0.8000 0.8666
v -0.678339 -0.531128 -0.000000 0.9490 0.8000 0.8666
v -0.402201 -0.531128 -0.000000 0.9490 0.8000 0.8666
v -0.402201 -0.419072 -0.000000 0.9490 0.8000 0.8666
v -0.574037 -0.419072 -0.000000 0.9490 0.8000 0.8666
v -0.574037 -0.331028 -0.000000 0.9490 0.8000 0.8666
v -0.415708 -0.331028 -0.000000 0.9490 0.8000 0.8666
v -0.415708 -0.218972 -0.000000 0.9490 0.8000 0.8666
v -0.574037 -0.218972 -0.000000 0.9490 0.8000 0.8666
v -0.574037 -0.130928 -0.000000 0.9490 0.8000 0.8666
v -0.401451 -0.130928 -0.000000 0.9490 0.8000 0.8666
v -0.401451 -0.018872 -0.000000 0.9490 0.8000 0.8666
v -0.678339 -0.018872 -0.000000 0.9490 0.8000 0.8666
v -1.031016 -0.531128 -0.000000 0.9490 0.8000 0.8666
v -0.926713 -0.531128 -0.000000 0.9490 0.8000 0.8666
v -0.926713 -0.362043 -0.000000 0.9490 0.8000 0.8666
v -0.890695 -0.362043 -0.000000 0.9490 0.8000 0.8666
v -0.823162 -0.531128 -0.000000 0.9490 0.8000 0.8666
v -0.709855 -0.531128 -0.000000 0.9490 0.8000 0.8666
v -0.787894 -0.340032 -0.000000 0.9490 0.8000 0.8666
v -0.748130 -0.301210 -0.000000 0.9490 0.8000 0.8666
v -0.722035 -0.216120 -0.000000 0.9490 0.8000 0.8666
v -0.743265 -0.088030 -0.000000 0.9490 0.8000 0.8666
v -0.818697 -0.024444 -0.000000 0.9490 0.8000 0.8666
v -1.031016 -0.018872 -0.000000 0.9490 0.8000 0.8666
v -0.920992 -0.260800 -0.000000 0.9490 0.8000 0.8666
v -0.926713 -0.129927 -0.000000 0.9490 0.8000 0.8666
v -0.847064 -0.138583 -0.000000 0.9490 0.8000 0.8666
v -0.833517 -0.223515 -0.000000 0.9490 0.8000 0.8666
v -1.377689 -0.531128 -0.000000 0.9490 0.8000 0.8666
v -1.273387 -0.531128 -0.000000 0.9490 0.8000 0.8666
v -1.273387 -0.379052 -0.000000 0.9490 0.8000 0.8666
v -1.168103 -0.373231 -0.000000 0.9490 0.8000 0.8666
v -1.090470 -0.307056 -0.000000 0.9490 0.8000 0.8666
v -1.069285 -0.199962 -0.000000 0.9490 0.8000 0.8666
v -1.090094 -0.092416 -0.000000 0.9490 0.8000 0.8666
v -1.165908 -0.024858 -0.000000 0.9490 0.8000 0.8666
v -1.377689 -0.018872 -0.000000 0.9490 0.8000 0.8666
v -1.273387 -0.270998 -0.000000 0.9490 0.8000 0.8666
v -1.273387 -0.129927 -0.000000 0.9490 0.8000 0.8666
v -1.195128 -0.139738 -0.000000 0.9490 0.8000 0.8666
v -1.178269 -0.217182 -0.000000 0.9490 0.8000 0.8666
v -1.205304 -0.265475 -0.000000 0.9490 0.8000 0.8666
v 0.198132 0.531128 0.000000 0.9490 0.8000 0.8666
v 0.081073 0.531128 0.000000 0.9490 0.8000 0.8666
v 0.195130 0.275000 0.000000 0.9490 0.8000 0.8666
v 0.077321 0.018872 0.000000 0.9490 0.8000 0.8666
v 0.195881 0.018872 0.000000 0.9490 0.8000 0.8666
v 0.262664 0.171640 0.000000 0.9490 0.8000 0.8666
v 0.329447 0.018872 0.000000 0.9490 0.8000 0.8666
v 0.448757 0.018872 0.000000 0.9490 0.8000 0.8666
v 0.329447 0.275000 0.000000 0.9490 0.8000 0.8666
v 0.444255 0.531128 0.000000 0.9490 0.8000 0.8666
v 0.327947 0.531128 0.000000 0.9490 0.8000 0.8666
v 0.262659 0.381363 0.000000 0.9490 0.8000 0.8666
v 0.052151 0.531128 0.000000 0.9490 0.8000 0.8666
v -0.048206 0.531128 0.000000 0.9490 0.8000 0.8666
v -0.103050 0.491217 0.000000 0.9490 0.8000 0.8666
v -0.103050 0.403469 0.000000 0.9490 0.8000 0.8666
v -0.048206 0.403469 0.000000 0.9490 0.8000 0.8666
v -0.048206 0.018872 0.000000 0.9490 0.8000 0.8666
v 0.052151 0.018872 0.000000 0.9490 0.8000 0.8666
v -0.425075 0.018872 0.000000 0.9490 0.8000 0.8666
v -0.320773 0.018872 0.000000 0.9490 0.8000 0.8666
v -0.320773 0.170948 0.000000 0.9490 0.8000 0.8666
v -0.215489 0.176769 0.000000 0.9490 0.8000 0.8666
v -0.137856 0.242944 0.000000 0.9490 0.8000 0.8666
v -0.116671 0.350038 0.000000 0.9490 0.8000 0.8666
v -0.137481 0.457584 0.000000 0.9490 0.8000 0.8666
v -0.213294 0.525142 0.000000 0.9490 0.8000 0.8666
v -0.425075 0.531128 0.000000 0.9490 0.8000 0.8666
v -0.320773 0.279002 0.000000 0.9490 0.8000 0.8666
v -0.320773 0.420073 0.000000 0.9490 0.8000 0.8666
v -0.242514 0.410262 0.000000 0.9490 0.8000 0.8666
v -0.225655 0.332818 0.000000 0.9490 0.8000 0.8666
v -0.252690 0.284525 0.000000 0.9490 0.8000 0.8666
v -0.048206 0.491217 0.000000 0.9490 0.8000 0.8666
vn -0.0000 -0.0000 1.0000
vn -0.0000 1.0000 -0.0000
s 0
f 6//1 4//1 5//1
f 6//1 3//1 4//1
f 7//1 24//1 6//1
f 24//1 3//1 6//1
f 24//1 2//1 3//1
f 7//1 23//1 24//1
f 1//1 2//1 24//1
f 7//1 22//1 23//1
f 8//1 22//1 7//1
f 8//1 21//1 22//1
f 8//1 20//1 21//1
f 9//1 20//1 8//1
f 10//1 20//1 9//1
f 10//1 19//1 20//1
f 15//1 13//1 14//1
f 11//1 19//1 10//1
f 15//1 12//1 13//1
f 15//1 11//1 12//1
f 15//1 19//1 11//1
f 16//1 19//1 15//1
f 16//1 18//1 19//1
f 16//1 17//1 18//1
f 25//1 31//1 32//1
f 25//1 30//1 31//1
f 26//2 30//2 25//2
f 27//1 29//1 26//1
f 29//2 30//2 26//2
f 27//1 28//1 29//1
f 38//1 36//1 37//1
f 38//1 40//1 36//1
f 40//1 35//1 36//1
f 35//1 33//1 34//1
f 35//1 42//1 33//1
f 38//1 39//1 40//1
f 41//1 35//1 40//1
f 41//1 42//1 35//1
f 43//1 51//1 54//1
f 51//1 53//1 54//1
f 51//1 52//1 53//1
f 43//1 50//1 51//1
f 43//1 47//1 50//1
f 47//1 49//1 50//1
f 47//1 48//1 49//1
f 43//1 46//1 47//1
f 43//1 45//1 46//1
f 43//1 44//1 45//1
f 60//1 58//1 59//1
f 60//1 57//1 58//1
f 61//1 78//1 60//1
f 78//1 57//1 60//1
f 78//1 56//1 57//1
f 61//1 77//1 78//1
f 55//1 56//1 78//1
f 61//1 76//1 77//1
f 62//1 76//1 61//1
f 62//1 75//1 76//1
f 62//1 74//1 75//1
f 63//1 74//1 62//1
f 64//1 74//1 63//1
f 64//1 73//1 74//1
f 69//1 67//1 68//1
f 65//1 73//1 64//1
f 69//1 66//1 67//1
f 69//1 65//1 66//1
f 69//1 73//1 65//1
f 70//1 73//1 69//1
f 70//1 72//1 73//1
f 70//1 71//1 72//1
f 79//1 87//1 90//1
f 87//1 89//1 90//1
f 87//1 88//1 89//1
f 79//1 86//1 87//1
f 79//1 83//1 86//1
f 83//1 85//1 86//1
f 83//1 84//1 85//1
f 79//1 82//1 83//1
f 79//1 81//1 82//1
f 79//1 80//1 81//1
f 91//1 104//1 102//1
f 104//1 101//1 102//1
f 104//1 100//1 101//1
f 104//1 105//1 100//1
f 105//1 99//1 100//1
f 91//1 103//1 104//1
f 106//1 99//1 105//1
f 103//1 99//1 106//1
f 103//1 98//1 99//1
f 91//1 93//1 103//1
f 93//1 98//1 103//1
f 93//1 97//1 98//1
f 93//1 94//1 97//1
f 94//1 96//1 97//1
f 91//1 92//1 93//1
f 95//1 96//1 94//1
f 107//1 117//1 115//1
f 117//1 114//1 115//1
f 117//1 113//1 114//1
f 117//1 118//1 113//1
f 118//1 112//1 113//1
f 107//1 116//1 117//1
f 119//1 112//1 118//1
f 119//1 111//1 112//1
f 120//1 111//1 119//1
f 107//1 120//1 116//1
f 107//1 109//1 120//1
f 109//1 111//1 120//1
f 109//1 110//1 111//1
f 107//1 108//1 109//1
f 123//1 121//1 122//1
f 123//1 132//1 121//1
f 132//1 130//1 131//1
f 132//1 129//1 130//1
f 123//1 129//1 132//1
f 124//1 129//1 123//1
f 124//1 126//1 129//1
f 126//1 128//1 129//1
f 124//1 125//1 126//1
f 127//1 128//1 126//1
f 137//1 139//1 133//1
f 154//1 136//1 137//1
f 138//1 139//1 137//1
f 140//1 150//1 148//1
f 150//1 147//1 148//1
f 150//1 146//1 147//1
f 150//1 151//1 146//1
f 151//1 145//1 146//1
f 140//1 149//1 150//1
f 152//1 145//1 151//1
f 152//1 144//1 145//1
f 153//1 144//1 152//1
f 140//1 153//1 149//1
f 140//1 142//1 153//1
f 142//1 144//1 153//1
f 142//1 143//1 144//1
f 140//1 141//1 142//1
f 134//1 154//1 133//1
f 154//1 137//1 133//1
f 154//1 135//1 136//1
